<svg width="49" height="48" viewBox="0 0 49 48" fill="none" xmlns="http://www.w3.org/2000/svg">
<path d="M5.04 32.3C4.2 32.3 3.50667 32.1533 2.96 31.86C2.41333 31.5667 2.00667 31.1867 1.74 30.72C1.47333 30.2533 1.34 29.7733 1.34 29.28C1.34 28.88 1.40667 28.52 1.54 28.2C1.80667 27.5733 2.28667 27.0267 2.98 26.56C3.67333 26.0933 4.52 25.86 5.52 25.86C5.64 25.86 5.76 25.8667 5.88 25.88C6.01333 25.8933 6.13333 25.9133 6.24 25.94C6.38667 25.9267 6.52667 25.88 6.66 25.8C6.79333 25.7067 6.89333 25.6267 6.96 25.56C7.02667 25.48 7.08 25.4 7.12 25.32C7.16 25.2267 7.18 25.1467 7.18 25.08C7.18 24.9867 7.14667 24.92 7.08 24.88C7.04 24.8533 7.02 24.8267 7.02 24.8C7.02 24.7067 7.10667 24.6867 7.28 24.74C7.53333 24.82 7.66 24.98 7.66 25.22C7.66 25.4467 7.54 25.64 7.3 25.8C7.20667 25.88 7.09333 25.94 6.96 25.98C6.84 26.0067 6.71333 26.02 6.58 26.02C7.03333 26.1533 7.44667 26.3867 7.82 26.72L7.92 26.68C8.09333 26.6267 8.28667 26.66 8.5 26.78C8.71333 26.9 8.86667 27.0933 8.96 27.36C9.02667 27.56 9.06 27.7733 9.06 28C9.06 28.24 9.02 28.4733 8.94 28.7C8.87333 28.9267 8.76 29.0867 8.6 29.18C8.44 29.2733 8.34 29.28 8.3 29.2C8.39333 29.12 8.44 29.0267 8.44 28.92C8.44 28.8133 8.4 28.7 8.32 28.58C8.25333 28.4733 8.18 28.3933 8.1 28.34C8.02 28.2733 7.93333 28.2 7.84 28.12C7.74667 28.0267 7.66 27.8933 7.58 27.72C7.51333 27.5867 7.48 27.46 7.48 27.34C7.48 27.1667 7.53333 27.0133 7.64 26.88C6.96 26.3333 6.17333 26.1 5.28 26.18C4.56 26.2467 3.95333 26.44 3.46 26.76C2.96667 27.0667 2.59333 27.4467 2.34 27.9C2.08667 28.3533 1.96 28.8267 1.96 29.32C1.96 29.9733 2.17333 30.5533 2.6 31.06L2.56 31C2.46667 30.8133 2.42 30.5933 2.42 30.34C2.42 30.18 2.44 30.0333 2.48 29.9C2.65333 29.46 2.9 29.24 3.22 29.24C3.43333 29.24 3.60667 29.34 3.74 29.54C3.79333 29.6067 3.82 29.68 3.82 29.76C3.82 29.88 3.76667 29.9 3.66 29.82C3.56667 29.7533 3.44667 29.76 3.3 29.84C3.15333 29.9333 3.02667 30.06 2.92 30.22C2.86667 30.2867 2.82 30.3867 2.78 30.52C2.74 30.6533 2.72 30.7933 2.72 30.94C2.72 31.02 2.73333 31.1133 2.76 31.22C3.01333 31.4733 3.32 31.6733 3.68 31.82C4.04 31.9667 4.46 32.04 4.94 32.04C5.63333 32.04 6.32 31.8667 7 31.52C7.68 31.1867 8.34 30.74 8.98 30.18C9.62 29.62 10.2333 28.9933 10.82 28.3C11.4067 27.6067 11.96 26.9 12.48 26.18C13 25.4467 13.4733 24.7533 13.9 24.1C14.34 23.4467 14.72 22.8867 15.04 22.42C15.7067 21.4333 16.4 20.4867 17.12 19.58C17.84 18.6733 18.6067 17.94 19.42 17.38C18.4867 17.0733 17.4933 16.7467 16.44 16.4C15.4 16.0533 14.3467 15.8 13.28 15.64C12.96 15.5733 12.6533 15.5333 12.36 15.52C12.3733 15.5333 12.36 15.5333 12.32 15.52C12.1467 15.4933 11.9933 15.5333 11.86 15.64C11.7267 15.7333 11.6333 15.82 11.58 15.9C11.4867 16.06 11.44 16.2067 11.44 16.34C11.44 16.46 11.48 16.54 11.56 16.58C11.6267 16.6067 11.66 16.64 11.66 16.68C11.66 16.7333 11.6133 16.76 11.52 16.76C11.4133 16.76 11.2867 16.72 11.14 16.64C11.0067 16.56 10.94 16.4333 10.94 16.26C10.94 16.0867 11.0067 15.9267 11.14 15.78C11.2867 15.6333 11.4667 15.5333 11.68 15.48C10.6 15.4533 9.66667 15.58 8.88 15.86C8.09333 16.14 7.44667 16.5133 6.94 16.98C6.43333 17.4333 6.05333 17.94 5.8 18.5C5.85333 18.5 5.88 18.5333 5.88 18.6C5.86667 18.88 5.9 19.1067 5.98 19.28C6.06 19.4533 6.16667 19.6133 6.3 19.76C6.38 19.6133 6.49333 19.5067 6.64 19.44C6.78667 19.3733 6.94 19.34 7.1 19.34C7.23333 19.34 7.34667 19.36 7.44 19.4C7.66667 19.48 7.84 19.5733 7.96 19.68C8.09333 19.7733 8.20667 19.8733 8.3 19.98C8.36667 20.06 8.46667 20.1333 8.6 20.2C8.73333 20.2667 8.86 20.3 8.98 20.3C9.16667 20.3 9.30667 20.2267 9.4 20.08C9.44 20.12 9.46 20.18 9.46 20.26C9.46 20.46 9.36 20.6333 9.16 20.78C8.97333 20.9267 8.74 21.04 8.46 21.12C8.19333 21.2 7.92667 21.24 7.66 21.24C7.18 21.24 6.8 21.1 6.52 20.82C6.25333 20.5267 6.14667 20.2533 6.2 20L6.22 19.96C6.04667 19.8133 5.92 19.66 5.84 19.5C5.76 19.3267 5.68667 19.14 5.62 18.94C5.47333 19.4067 5.4 19.8467 5.4 20.26C5.4 20.8067 5.51333 21.3267 5.74 21.82C5.96667 22.3 6.3 22.6867 6.74 22.98C7.18 23.2733 7.71333 23.42 8.34 23.42C8.96667 23.42 9.57333 23.26 10.16 22.94C10.7467 22.6067 11.22 22.16 11.58 21.6C11.94 21.0267 12.0933 20.38 12.04 19.66C12.0267 19.4333 11.9467 19.2 11.8 18.96C11.6667 18.72 11.4667 18.6 11.2 18.6C11.1333 18.6 11.06 18.6133 10.98 18.64C10.9 18.6667 10.8467 18.7133 10.82 18.78C10.8067 18.82 10.78 18.84 10.74 18.84C10.6733 18.84 10.64 18.78 10.64 18.66C10.64 18.4733 10.7067 18.32 10.84 18.2C10.9867 18.08 11.1467 18.02 11.32 18.02C11.5067 18.02 11.6867 18.1133 11.86 18.3C12.0467 18.4867 12.1467 18.8133 12.16 19.28C12.2 19.16 12.2533 19.04 12.32 18.92C12.4667 18.72 12.64 18.62 12.84 18.62C13.0533 18.62 13.1933 18.72 13.26 18.92C13.2867 19 13.2867 19.06 13.26 19.1C13.2333 19.14 13.1933 19.1333 13.14 19.08C13.1 19.04 13.0533 19.02 13 19.02C12.8933 19.02 12.7533 19.08 12.58 19.2C12.54 19.24 12.4933 19.3 12.44 19.38C12.3867 19.46 12.3467 19.5533 12.32 19.66C12.3467 20.4733 12.1933 21.1733 11.86 21.76C11.5267 22.3467 11.0933 22.8067 10.56 23.14C10.6267 23.1267 10.6867 23.12 10.74 23.12C10.7933 23.1067 10.8467 23.1 10.9 23.1C11.1667 23.1 11.38 23.1733 11.54 23.32C11.7133 23.4533 11.8 23.6 11.8 23.76C11.8 23.9333 11.7133 24.08 11.54 24.2C11.4467 24.2533 11.3733 24.2733 11.32 24.26C11.2667 24.2333 11.2667 24.1867 11.32 24.12C11.3867 24.04 11.38 23.94 11.3 23.82C11.2333 23.7 11.1333 23.5933 11 23.5C10.8533 23.38 10.6533 23.32 10.4 23.32C10.3733 23.32 10.34 23.32 10.3 23.32C10.26 23.32 10.2267 23.3267 10.2 23.34C9.62667 23.6067 9.02 23.74 8.38 23.74C7.56667 23.74 6.87333 23.58 6.3 23.26C5.74 22.9267 5.3 22.5133 4.98 22.02C4.98 22.1 4.96667 22.1933 4.94 22.3C4.86 22.5533 4.72 22.7733 4.52 22.96C4.58667 23.0933 4.62 23.2333 4.62 23.38C4.62 23.7133 4.48 24.02 4.2 24.3C4.04 24.4733 3.80667 24.6267 3.5 24.76C3.19333 24.88 2.9 24.94 2.62 24.94C2.39333 24.94 2.20667 24.8867 2.06 24.78C1.96667 24.7133 1.91333 24.6533 1.9 24.6C1.88667 24.5333 1.88667 24.4933 1.9 24.48C1.94 24.5067 2 24.52 2.08 24.52C2.24 24.52 2.38 24.4467 2.5 24.3C2.63333 24.14 2.71333 23.9933 2.74 23.86C2.76667 23.7267 2.80667 23.5867 2.86 23.44C2.91333 23.2933 3.00667 23.14 3.14 22.98C3.34 22.74 3.59333 22.62 3.9 22.62C4.11333 22.62 4.28667 22.6867 4.42 22.82C4.55333 22.66 4.65333 22.4467 4.72 22.18C4.73333 22.1133 4.74 22.0467 4.74 21.98C4.75333 21.9133 4.76 21.8533 4.76 21.8C4.76 21.68 4.75333 21.5933 4.74 21.54C4.54 21.06 4.44 20.5467 4.44 20C4.44 19.5333 4.51333 19.0667 4.66 18.6C4.82 18.12 5.06 17.6733 5.38 17.26C5.32667 17.2733 5.26 17.2867 5.18 17.3C5.11333 17.3 5.04667 17.3 4.98 17.3C4.80667 17.3 4.63333 17.2667 4.46 17.2C4.3 17.1333 4.15333 17.0333 4.02 16.9C3.98 16.9133 3.92 16.92 3.84 16.92C3.65333 16.92 3.45333 16.8467 3.24 16.7C3.04 16.5533 2.88667 16.3533 2.78 16.1C2.7 15.9 2.66 15.66 2.66 15.38C2.66 15.0733 2.70667 14.78 2.8 14.5C2.89333 14.22 3.03333 14.0333 3.22 13.94C3.32667 13.8733 3.40667 13.8467 3.46 13.86C3.51333 13.8733 3.55333 13.8867 3.58 13.9C3.47333 13.9933 3.42 14.1133 3.42 14.26C3.42 14.3933 3.46 14.5267 3.54 14.66C3.62 14.78 3.70667 14.8733 3.8 14.94C3.90667 15.02 4.01333 15.1133 4.12 15.22C4.24 15.3267 4.34667 15.4733 4.44 15.66C4.50667 15.82 4.54 15.9667 4.54 16.1C4.54 16.42 4.42667 16.66 4.2 16.82C4.38667 16.98 4.63333 17.06 4.94 17.06H5.06C5.24667 17.06 5.44 17.0267 5.64 16.96C6.16 16.3733 6.85333 15.8933 7.72 15.52C8.58667 15.1467 9.64 14.96 10.88 14.96C11.1867 14.96 11.5 14.9733 11.82 15C12.14 15.0267 12.4667 15.0667 12.8 15.12C13.5067 15.2267 14.2733 15.4 15.1 15.64C15.94 15.88 16.7667 16.1333 17.58 16.4C18.3933 16.6667 19.12 16.9133 19.76 17.14C20.1467 16.9133 20.54 16.7333 20.94 16.6C21.34 16.4667 21.7533 16.4 22.18 16.4C22.5533 16.4 22.8333 16.48 23.02 16.64C23.22 16.8 23.32 16.98 23.32 17.18C23.32 17.3933 23.2 17.5867 22.96 17.76C22.7333 17.9333 22.3733 18.0133 21.88 18C21.52 18.5333 21.1933 19.12 20.9 19.76C20.6067 20.4 20.34 21.04 20.1 21.68C19.8733 22.32 19.68 22.9133 19.52 23.46C19.32 24.14 19.1 24.7867 18.86 25.4C18.6333 26.0133 18.2867 26.5733 17.82 27.08C18.6467 26.4533 19.4 25.7333 20.08 24.92C20.7733 24.1067 21.4 23.2733 21.96 22.42C22.3333 21.8467 22.7867 21.2 23.32 20.48C23.8533 19.7467 24.44 19.0133 25.08 18.28C25.72 17.5333 26.38 16.84 27.06 16.2C27.7533 15.5467 28.4467 15.0133 29.14 14.6C29.8333 14.1733 30.4933 13.9333 31.12 13.88C31.2 13.8667 31.28 13.86 31.36 13.86C31.44 13.86 31.5133 13.86 31.58 13.86C32.3533 13.86 32.9067 14.0267 33.24 14.36C33.5733 14.68 33.74 15.0267 33.74 15.4C33.74 15.64 33.6733 15.8667 33.54 16.08C33.4067 16.28 33.2267 16.42 33 16.5L32.96 16.3C33.28 16.1133 33.44 15.8467 33.44 15.5C33.44 15.2333 33.32 14.9867 33.08 14.76C32.8533 14.5333 32.5067 14.42 32.04 14.42C31.8 14.42 31.5267 14.46 31.22 14.54C30.74 14.6733 30.2067 14.9467 29.62 15.36C29.0333 15.7733 28.42 16.2667 27.78 16.84C27.1533 17.4133 26.5333 18.0267 25.92 18.68C25.32 19.32 24.76 19.94 24.24 20.54C23.72 21.14 23.2733 21.6667 22.9 22.12C22.54 22.5733 22.2867 22.9 22.14 23.1C21.9 23.4333 21.5933 23.8333 21.22 24.3C20.86 24.7667 20.4467 25.2467 19.98 25.74C19.5267 26.22 19.0467 26.6733 18.54 27.1C18.0333 27.5133 17.52 27.8533 17 28.12C16.48 28.3733 15.9733 28.5 15.48 28.5C15.2133 28.5 15.08 28.4733 15.08 28.42C15.08 28.3533 15.1667 28.28 15.34 28.2C15.5133 28.12 15.6267 28.0533 15.68 28C15.7467 27.9467 15.86 27.7867 16.02 27.52C16.18 27.2533 16.3667 26.9333 16.58 26.56C16.8067 26.1733 17.0333 25.7733 17.26 25.36C17.5 24.9467 17.7133 24.5667 17.9 24.22C18.0867 23.86 18.2267 23.5733 18.32 23.36C18.4 23.2 18.5467 22.9133 18.76 22.5C18.9733 22.0733 19.2333 21.5933 19.54 21.06C19.8467 20.5133 20.1667 19.9667 20.5 19.42C20.8467 18.86 21.1867 18.3733 21.52 17.96C21.4267 17.9467 21.32 17.9267 21.2 17.9C21.08 17.8733 20.9533 17.8467 20.82 17.82L20.24 17.64C19.8133 18 19.3933 18.4267 18.98 18.92C18.5667 19.4133 18.18 19.92 17.82 20.44C17.4733 20.9467 17.16 21.4267 16.88 21.88C16.6 22.3333 16.3733 22.7 16.2 22.98C15.8 23.66 15.3067 24.4133 14.72 25.24C14.1333 26.0667 13.4733 26.8933 12.74 27.72C12.0067 28.5467 11.22 29.3067 10.38 30C9.55333 30.6933 8.68667 31.2467 7.78 31.66C6.87333 32.0867 5.96 32.3 5.04 32.3ZM22.26 17.68C22.4867 17.6667 22.6667 17.6067 22.8 17.5C22.9333 17.3933 23 17.2733 23 17.14C23 17.02 22.9333 16.9133 22.8 16.82C22.68 16.7267 22.4733 16.68 22.18 16.68C21.9267 16.6933 21.66 16.7667 21.38 16.9C21.1 17.02 20.82 17.1867 20.54 17.4C20.7667 17.48 20.9733 17.54 21.16 17.58C21.3467 17.62 21.5533 17.6467 21.78 17.66C21.8733 17.5533 21.96 17.46 22.04 17.38C22.1333 17.2867 22.2267 17.2133 22.32 17.16L22.44 17.22C22.3867 17.2867 22.3333 17.36 22.28 17.44C22.2267 17.52 22.1667 17.6 22.1 17.68H22.26ZM23.84 30.16C23.56 30.16 23.3067 30.0733 23.08 29.9C22.9067 29.78 22.78 29.6 22.7 29.36C22.62 29.12 22.58 28.8533 22.58 28.56C22.58 28.32 22.6 28.0667 22.64 27.8C22.6933 27.5333 22.76 27.26 22.84 26.98C23.0667 26.2067 23.4133 25.3533 23.88 24.42C24.36 23.4867 24.9067 22.54 25.52 21.58C26.1333 20.62 26.78 19.72 27.46 18.88C28.1533 18.0267 28.8267 17.3 29.48 16.7L29.6 16.84C29.16 17.3733 28.7133 18 28.26 18.72C27.82 19.4267 27.3867 20.18 26.96 20.98C26.5467 21.78 26.1533 22.5867 25.78 23.4C25.42 24.2 25.1067 24.9667 24.84 25.7C24.8267 25.74 24.7733 25.88 24.68 26.12C24.6 26.36 24.5067 26.66 24.4 27.02C24.3067 27.3667 24.22 27.72 24.14 28.08C24.06 28.44 24.02 28.7533 24.02 29.02C24.02 29.2067 24.0467 29.36 24.1 29.48C24.1533 29.6 24.24 29.66 24.36 29.66C24.48 29.66 24.64 29.6 24.84 29.48C24.9333 29.4133 25.02 29.3467 25.1 29.28C25.18 29.2267 25.26 29.16 25.34 29.08L25.5 29.26C25.3133 29.4733 25.0667 29.6733 24.76 29.86C24.4667 30.06 24.16 30.16 23.84 30.16ZM35.7541 35.34C35.6474 35.34 35.5941 35.2867 35.5941 35.18C35.5941 35.1267 35.6207 35.0733 35.6741 35.02C35.7274 34.9667 35.7541 34.9 35.7541 34.82C35.7541 34.7133 35.7207 34.6 35.6541 34.48C35.6007 34.36 35.5274 34.2533 35.4341 34.16C35.1407 34.16 34.9141 34.0667 34.7541 33.88C34.5941 33.6933 34.5141 33.48 34.5141 33.24C34.5141 33.12 34.5341 33.0133 34.5741 32.92C34.3341 32.68 34.2141 32.3267 34.2141 31.86C34.2141 31.46 34.3074 31.0133 34.4941 30.52C34.6807 30.0267 34.9541 29.5667 35.3141 29.14L35.4141 29.02C34.9607 28.7933 34.5207 28.5733 34.0941 28.36C33.6807 28.1467 33.2807 27.9467 32.8941 27.76L32.8741 27.78C32.8607 27.78 32.8474 27.7867 32.8341 27.8H32.8141L32.7541 27.84C32.3807 28.08 32.1341 28.36 32.0141 28.68C32.1741 28.72 32.3074 28.8067 32.4141 28.94C32.5207 29.0867 32.5741 29.2533 32.5741 29.44C32.5741 29.6 32.5274 29.7467 32.4341 29.88C32.3007 30.08 32.2074 30.2667 32.1541 30.44C32.1141 30.6267 32.0941 30.7933 32.0941 30.94C32.0941 31.1133 32.1141 31.26 32.1541 31.38C32.1941 31.5133 32.2341 31.6133 32.2741 31.68C32.0741 31.64 31.8874 31.5333 31.7141 31.36C31.5541 31.2 31.4207 31.02 31.3141 30.82C31.2074 30.6333 31.1341 30.4867 31.0941 30.38C31.0141 30.14 30.9741 29.9133 30.9741 29.7C30.9741 29.4333 31.0341 29.2 31.1541 29C31.2874 28.8133 31.4807 28.7 31.7341 28.66H31.8141C31.8541 28.5533 31.9007 28.46 31.9541 28.38C32.0207 28.2867 32.0874 28.2 32.1541 28.12C31.7407 28.2933 31.3341 28.4333 30.9341 28.54C30.5341 28.66 30.1607 28.72 29.8141 28.72C29.3607 28.72 29.0074 28.6333 28.7541 28.46C28.5007 28.2733 28.3741 28.04 28.3741 27.76C28.3741 27.5067 28.4807 27.2467 28.6941 26.98C28.8274 26.8067 29.0207 26.6867 29.2741 26.62C29.5407 26.54 29.8274 26.5 30.1341 26.5C30.4007 26.5 30.6807 26.5267 30.9741 26.58C31.2807 26.62 31.5674 26.6933 31.8341 26.8C31.9807 26.8533 32.1207 26.9067 32.2541 26.96C32.3874 27 32.5207 27.0533 32.6541 27.12C33.0941 26.7733 33.5141 26.4067 33.9141 26.02C34.3141 25.62 34.6674 25.26 34.9741 24.94C34.8007 25.0067 34.6007 25.06 34.3741 25.1C34.1607 25.1267 33.9474 25.1333 33.7341 25.12C33.5741 25.3467 33.3274 25.46 32.9941 25.46C32.8207 25.46 32.6207 25.42 32.3941 25.34C32.1674 25.2467 31.9141 25.0867 31.6341 24.86C31.3541 24.6333 31.1141 24.3867 30.9141 24.12C30.7274 23.84 30.6341 23.5867 30.6341 23.36C30.6341 23.2267 30.6541 23.14 30.6941 23.1C30.7341 23.06 30.7674 23.04 30.7941 23.04C30.8474 23.1333 30.9207 23.24 31.0141 23.36C31.1207 23.48 31.2207 23.56 31.3141 23.6C31.3674 23.6267 31.4141 23.6467 31.4541 23.66C31.5074 23.66 31.5607 23.66 31.6141 23.66C31.7207 23.66 31.8274 23.6467 31.9341 23.62C32.0407 23.5933 32.1674 23.58 32.3141 23.58C32.3941 23.58 32.4807 23.5867 32.5741 23.6C32.6674 23.6133 32.7674 23.64 32.8741 23.68C33.1274 23.76 33.3541 23.92 33.5541 24.16C33.7541 24.3867 33.8407 24.6333 33.8141 24.9C34.1074 24.9133 34.4074 24.8733 34.7141 24.78C35.0341 24.6733 35.2741 24.5733 35.4341 24.48C35.7007 24.2133 35.9741 23.9333 36.2541 23.64C36.5474 23.3333 36.8407 23.0333 37.1341 22.74C36.9474 22.86 36.7207 22.92 36.4541 22.92C36.3741 22.92 36.2941 22.9133 36.2141 22.9C36.1474 22.8867 36.0807 22.86 36.0141 22.82C35.9207 22.7667 35.8541 22.6933 35.8141 22.6C35.7741 22.4933 35.7541 22.3933 35.7541 22.3C35.7541 22.1267 35.8007 21.98 35.8941 21.86C35.9341 21.82 35.9674 21.8 35.9941 21.8C36.0341 21.8 36.0541 21.8733 36.0541 22.02C36.0541 22.14 36.1274 22.2467 36.2741 22.34C36.4341 22.42 36.6141 22.48 36.8141 22.52C37.0141 22.5467 37.1674 22.5467 37.2741 22.52C37.3407 22.48 37.3874 22.46 37.4141 22.46C38.2674 21.5933 39.1607 20.7333 40.0941 19.88C41.0274 19.0133 41.9741 18.26 42.9341 17.62C42.2274 17.4733 41.4474 17.3333 40.5941 17.2C39.7541 17.0667 38.9541 17 38.1941 17C37.9141 17 37.6407 17.0133 37.3741 17.04C37.1207 17.0533 36.8807 17.0867 36.6541 17.14C36.2141 17.2333 35.7741 17.3867 35.3341 17.6C34.9074 17.8133 34.5541 18.0533 34.2741 18.32C34.0074 18.5867 33.8941 18.8533 33.9341 19.12L33.6541 19.16C33.6407 19.1333 33.6341 19.1 33.6341 19.06C33.6341 19.02 33.6341 18.9867 33.6341 18.96C33.6341 18.6267 33.7474 18.28 33.9741 17.92C34.2141 17.56 34.5207 17.2333 34.8941 16.94C35.2807 16.6467 35.6941 16.4467 36.1341 16.34C36.4941 16.26 36.9007 16.22 37.3541 16.22C37.9807 16.22 38.6474 16.2867 39.3541 16.42C40.0607 16.54 40.7607 16.6867 41.4541 16.86C42.1607 17.0333 42.8074 17.1933 43.3941 17.34C43.6874 17.1533 43.9741 16.9867 44.2541 16.84C44.5474 16.6933 44.8407 16.5667 45.1341 16.46C45.4007 16.3533 45.6674 16.28 45.9341 16.24C46.2141 16.1867 46.4807 16.16 46.7341 16.16C47.1074 16.16 47.4207 16.2133 47.6741 16.32C48.0741 16.5067 48.2741 16.7533 48.2741 17.06C48.2741 17.26 48.1607 17.4533 47.9341 17.64C47.7074 17.8267 47.3407 17.96 46.8341 18.04C46.5407 18.08 46.2407 18.1 45.9341 18.1C45.5874 18.1 45.2407 18.08 44.8941 18.04C44.5474 17.9867 44.2007 17.92 43.8541 17.84C43.1607 18.32 42.4741 18.8867 41.7941 19.54C41.1274 20.1933 40.4674 20.88 39.8141 21.6C39.1741 22.3067 38.5407 23 37.9141 23.68C37.2874 24.3467 36.6807 24.9533 36.0941 25.5C35.6941 25.86 35.2674 26.2133 34.8141 26.56C34.3741 26.8933 33.9207 27.1933 33.4541 27.46C33.8541 27.6333 34.2474 27.82 34.6341 28.02C35.0207 28.22 35.4007 28.4133 35.7741 28.6C36.0807 28.2533 36.4341 27.92 36.8341 27.6C36.7407 27.64 36.6274 27.66 36.4941 27.66C36.3874 27.66 36.2941 27.64 36.2141 27.6C35.9607 27.4933 35.8341 27.3333 35.8341 27.12C35.8341 26.9733 35.8807 26.8533 35.9741 26.76C36.0007 26.72 36.0341 26.7 36.0741 26.7C36.1807 26.7 36.2207 26.7733 36.1941 26.92C36.1807 27.0667 36.2941 27.18 36.5341 27.26C36.7874 27.34 36.9941 27.3667 37.1541 27.34C37.8207 26.82 38.5474 26.36 39.3341 25.96C40.1341 25.56 40.9341 25.2467 41.7341 25.02C42.5341 24.7933 43.2874 24.68 43.9941 24.68C45.1007 24.68 45.9141 24.9267 46.4341 25.42C46.9541 25.9 47.2141 26.4667 47.2141 27.12C47.2141 27.6533 47.0474 28.1933 46.7141 28.74C46.3941 29.2867 45.9141 29.76 45.2741 30.16C44.6474 30.5733 43.8741 30.8533 42.9541 31C42.8074 31.0133 42.6541 31.0267 42.4941 31.04C42.3341 31.0667 42.1741 31.08 42.0141 31.08C41.0007 31.08 39.9541 30.88 38.8741 30.48C37.7941 30.0933 36.7407 29.6533 35.7141 29.16L35.6341 29.26C35.5407 29.38 35.4474 29.5 35.3541 29.62C35.2741 29.74 35.2007 29.86 35.1341 29.98C35.1474 30.14 35.2141 30.3267 35.3341 30.54C35.4541 30.7667 35.5874 30.86 35.7341 30.82C35.7607 30.82 35.7741 30.8133 35.7741 30.8C35.7874 30.8 35.8007 30.8 35.8141 30.8C35.9074 30.8 35.9541 30.84 35.9541 30.92C35.9541 30.9733 35.9141 31.0333 35.8341 31.1C35.7541 31.18 35.6541 31.22 35.5341 31.22C35.3607 31.22 35.2007 31.12 35.0541 30.92C35.0007 30.8533 34.9674 30.76 34.9541 30.64C34.9407 30.5333 34.9341 30.4333 34.9341 30.34C34.6807 30.8867 34.5541 31.3733 34.5541 31.8C34.5541 32.1333 34.6341 32.4333 34.7941 32.7C34.8074 32.7 34.8274 32.7133 34.8541 32.74C34.9207 32.8067 35.0074 32.8667 35.1141 32.92C35.2341 32.9867 35.3741 33.02 35.5341 33.02C35.6141 33.02 35.7007 33.0133 35.7941 33C35.9007 32.9867 36.0007 32.9533 36.0941 32.9C36.2541 32.8333 36.4274 32.8 36.6141 32.8C36.8807 32.8 37.1074 32.8733 37.2941 33.02C37.3607 33.0733 37.4207 33.1467 37.4741 33.24C37.5274 33.3467 37.5541 33.46 37.5541 33.58C37.5541 33.6733 37.5207 33.7867 37.4541 33.92C37.4407 33.9733 37.4141 34 37.3741 34C37.3607 34 37.3474 33.9733 37.3341 33.92C37.3207 33.88 37.3141 33.8333 37.3141 33.78C37.3141 33.62 37.2074 33.54 36.9941 33.54C36.8741 33.54 36.7407 33.5867 36.5941 33.68C36.3141 33.8933 36.0741 34.0267 35.8741 34.08C36.0207 34.1867 36.1207 34.2933 36.1741 34.4C36.2407 34.56 36.2741 34.6867 36.2741 34.78C36.2741 34.9533 36.2141 35.0867 36.0941 35.18C35.9874 35.2867 35.8807 35.34 35.7741 35.34H35.7541ZM46.1141 17.74C46.7141 17.74 47.1474 17.6733 47.4141 17.54C47.6807 17.3933 47.8141 17.24 47.8141 17.08C47.8141 16.9467 47.7341 16.8333 47.5741 16.74C47.4141 16.6467 47.1874 16.6 46.8941 16.6C46.7207 16.6 46.5341 16.62 46.3341 16.66C46.1341 16.6867 45.9207 16.7467 45.6941 16.84C45.2407 17.0133 44.7874 17.2467 44.3341 17.54C44.6941 17.6067 45.0207 17.66 45.3141 17.7C45.6074 17.7267 45.8741 17.74 46.1141 17.74ZM41.4341 30.24C41.6607 30.24 41.8941 30.2333 42.1341 30.22C42.3874 30.2067 42.6407 30.18 42.8941 30.14C43.6941 30.02 44.3541 29.8 44.8741 29.48C45.4074 29.1733 45.8074 28.8067 46.0741 28.38C46.3407 27.9533 46.4741 27.5333 46.4741 27.12C46.4741 26.56 46.2407 26.0733 45.7741 25.66C45.3074 25.2333 44.6007 25.02 43.6541 25.02C42.8674 25.02 42.0207 25.1867 41.1141 25.52C40.2074 25.8533 39.3407 26.2733 38.5141 26.78C38.2341 27.1 38.0941 27.4333 38.0941 27.78C38.1207 27.78 38.1541 27.7867 38.1941 27.8C38.2341 27.8 38.2807 27.8067 38.3341 27.82C38.4807 27.8733 38.5674 27.96 38.5941 28.08C38.6341 28.1867 38.6541 28.28 38.6541 28.36V28.48C38.6541 28.56 38.6607 28.6333 38.6741 28.7C38.6874 28.78 38.7141 28.84 38.7541 28.88C38.8341 28.9733 38.9207 29.04 39.0141 29.08C39.1074 29.1333 39.1807 29.1733 39.2341 29.2C39.1407 29.24 39.0274 29.26 38.8941 29.26C38.7207 29.26 38.5474 29.2333 38.3741 29.18C38.2141 29.1267 38.1007 29.0733 38.0341 29.02C37.9007 28.9133 37.8007 28.8 37.7341 28.68C37.6674 28.56 37.6341 28.4467 37.6341 28.34C37.6341 28.1 37.7341 27.9333 37.9341 27.84C37.9207 27.68 37.9341 27.5333 37.9741 27.4C38.0274 27.2667 38.0874 27.14 38.1541 27.02C37.3541 27.54 36.6607 28.1133 36.0741 28.74C36.9007 29.1533 37.7407 29.5067 38.5941 29.8C39.4607 30.0933 40.4074 30.24 41.4341 30.24ZM29.7941 28.42C30.1674 28.42 30.5607 28.3333 30.9741 28.16C31.3874 27.9867 31.8007 27.7533 32.2141 27.46C31.7874 27.2733 31.3874 27.1267 31.0141 27.02C30.6407 26.9133 30.3007 26.86 29.9941 26.86C29.8207 26.86 29.6541 26.8867 29.4941 26.94C29.3341 26.98 29.1941 27.0533 29.0741 27.16C28.8607 27.3467 28.7541 27.5533 28.7541 27.78C28.7541 27.9533 28.8341 28.1067 28.9941 28.24C29.1674 28.36 29.4341 28.42 29.7941 28.42Z" fill="#F1F5F9"/>
</svg>
