<svg width="301" height="113" viewBox="0 0 301 113" fill="none" xmlns="http://www.w3.org/2000/svg">
<path d="M13.428 59.16C10.74 59.16 8.52133 58.6907 6.772 57.752C5.02267 56.8133 3.72133 55.5973 2.868 54.104C2.01467 52.6107 1.588 51.0747 1.588 49.496C1.588 48.216 1.80133 47.064 2.228 46.04C3.08133 44.0347 4.61733 42.2853 6.836 40.792C9.05467 39.2987 11.764 38.552 14.964 38.552C15.348 38.552 15.732 38.5733 16.116 38.616C16.5427 38.6587 16.9267 38.7227 17.268 38.808C17.7373 38.7653 18.1853 38.616 18.612 38.36C19.0387 38.0613 19.3587 37.8053 19.572 37.592C19.7853 37.336 19.956 37.08 20.084 36.824C20.212 36.5253 20.276 36.2693 20.276 36.056C20.276 35.7573 20.1693 35.544 19.956 35.416C19.828 35.3307 19.764 35.2453 19.764 35.16C19.764 34.8613 20.0413 34.7973 20.596 34.968C21.4067 35.224 21.812 35.736 21.812 36.504C21.812 37.2293 21.428 37.848 20.66 38.36C20.3613 38.616 19.9987 38.808 19.572 38.936C19.188 39.0213 18.7827 39.064 18.356 39.064C19.8067 39.4907 21.1293 40.2373 22.324 41.304L22.644 41.176C23.1987 41.0053 23.8173 41.112 24.5 41.496C25.1827 41.88 25.6733 42.4987 25.972 43.352C26.1853 43.992 26.292 44.6747 26.292 45.4C26.292 46.168 26.164 46.9147 25.908 47.64C25.6947 48.3653 25.332 48.8773 24.82 49.176C24.308 49.4747 23.988 49.496 23.86 49.24C24.1587 48.984 24.308 48.6853 24.308 48.344C24.308 48.0027 24.18 47.64 23.924 47.256C23.7107 46.9147 23.476 46.6587 23.22 46.488C22.964 46.2747 22.6867 46.04 22.388 45.784C22.0893 45.4853 21.812 45.0587 21.556 44.504C21.3427 44.0773 21.236 43.672 21.236 43.288C21.236 42.7333 21.4067 42.2427 21.748 41.816C19.572 40.0667 17.0547 39.32 14.196 39.576C11.892 39.7893 9.95067 40.408 8.372 41.432C6.79333 42.4133 5.59867 43.6293 4.788 45.08C3.97733 46.5307 3.572 48.0453 3.572 49.624C3.572 51.7147 4.25467 53.5707 5.62 55.192L5.492 55C5.19333 54.4027 5.044 53.6987 5.044 52.888C5.044 52.376 5.108 51.9067 5.236 51.48C5.79067 50.072 6.58 49.368 7.604 49.368C8.28667 49.368 8.84133 49.688 9.268 50.328C9.43867 50.5413 9.524 50.776 9.524 51.032C9.524 51.416 9.35333 51.48 9.012 51.224C8.71333 51.0107 8.32933 51.032 7.86 51.288C7.39067 51.5867 6.98533 51.992 6.644 52.504C6.47333 52.7173 6.324 53.0373 6.196 53.464C6.068 53.8907 6.004 54.3387 6.004 54.808C6.004 55.064 6.04667 55.3627 6.132 55.704C6.94267 56.5147 7.924 57.1547 9.076 57.624C10.228 58.0933 11.572 58.328 13.108 58.328C15.3267 58.328 17.524 57.7733 19.7 56.664C21.876 55.5973 23.988 54.168 26.036 52.376C28.084 50.584 30.0467 48.5787 31.924 46.36C33.8013 44.1413 35.572 41.88 37.236 39.576C38.9 37.2293 40.4147 35.0107 41.78 32.92C43.188 30.8293 44.404 29.0373 45.428 27.544C47.5613 24.3867 49.78 21.3573 52.084 18.456C54.388 15.5547 56.8413 13.208 59.444 11.416C56.4573 10.4347 53.2787 9.38933 49.908 8.28C46.58 7.17066 43.2093 6.36 39.796 5.848C38.772 5.63467 37.7907 5.50667 36.852 5.464C36.8947 5.50667 36.852 5.50667 36.724 5.464C36.1693 5.37866 35.6787 5.50667 35.252 5.848C34.8253 6.14666 34.5267 6.424 34.356 6.68C34.0573 7.192 33.908 7.66133 33.908 8.088C33.908 8.472 34.036 8.728 34.292 8.856C34.5053 8.94133 34.612 9.048 34.612 9.176C34.612 9.34667 34.4627 9.432 34.164 9.432C33.8227 9.432 33.4173 9.304 32.948 9.048C32.5213 8.792 32.308 8.38666 32.308 7.832C32.308 7.27733 32.5213 6.76533 32.948 6.296C33.4173 5.82667 33.9933 5.50667 34.676 5.336C31.22 5.25066 28.2333 5.656 25.716 6.552C23.1987 7.448 21.1293 8.64267 19.508 10.136C17.8867 11.5867 16.6707 13.208 15.86 15C16.0307 15 16.116 15.1067 16.116 15.32C16.0733 16.216 16.18 16.9413 16.436 17.496C16.692 18.0507 17.0333 18.5627 17.46 19.032C17.716 18.5627 18.0787 18.2213 18.548 18.008C19.0173 17.7947 19.508 17.688 20.02 17.688C20.4467 17.688 20.8093 17.752 21.108 17.88C21.8333 18.136 22.388 18.4347 22.772 18.776C23.1987 19.0747 23.5613 19.3947 23.86 19.736C24.0733 19.992 24.3933 20.2267 24.82 20.44C25.2467 20.6533 25.652 20.76 26.036 20.76C26.6333 20.76 27.0813 20.5253 27.38 20.056C27.508 20.184 27.572 20.376 27.572 20.632C27.572 21.272 27.252 21.8267 26.612 22.296C26.0147 22.7653 25.268 23.128 24.372 23.384C23.5187 23.64 22.6653 23.768 21.812 23.768C20.276 23.768 19.06 23.32 18.164 22.424C17.3107 21.4853 16.9693 20.6107 17.14 19.8L17.204 19.672C16.6493 19.2027 16.244 18.712 15.988 18.2C15.732 17.6453 15.4973 17.048 15.284 16.408C14.8147 17.9013 14.58 19.3093 14.58 20.632C14.58 22.3813 14.9427 24.0453 15.668 25.624C16.3933 27.16 17.46 28.3973 18.868 29.336C20.276 30.2747 21.9827 30.744 23.988 30.744C25.9933 30.744 27.9347 30.232 29.812 29.208C31.6893 28.1413 33.204 26.712 34.356 24.92C35.508 23.0853 35.9987 21.016 35.828 18.712C35.7853 17.9867 35.5293 17.24 35.06 16.472C34.6333 15.704 33.9933 15.32 33.14 15.32C32.9267 15.32 32.692 15.3627 32.436 15.448C32.18 15.5333 32.0093 15.6827 31.924 15.896C31.8813 16.024 31.796 16.088 31.668 16.088C31.4547 16.088 31.348 15.896 31.348 15.512C31.348 14.9147 31.5613 14.424 31.988 14.04C32.4573 13.656 32.9693 13.464 33.524 13.464C34.1213 13.464 34.6973 13.7627 35.252 14.36C35.8493 14.9573 36.1693 16.0027 36.212 17.496C36.34 17.112 36.5107 16.728 36.724 16.344C37.1933 15.704 37.748 15.384 38.388 15.384C39.0707 15.384 39.5187 15.704 39.732 16.344C39.8173 16.6 39.8173 16.792 39.732 16.92C39.6467 17.048 39.5187 17.0267 39.348 16.856C39.22 16.728 39.0707 16.664 38.9 16.664C38.5587 16.664 38.1107 16.856 37.556 17.24C37.428 17.368 37.2787 17.56 37.108 17.816C36.9373 18.072 36.8093 18.3707 36.724 18.712C36.8093 21.3147 36.3187 23.5547 35.252 25.432C34.1853 27.3093 32.7987 28.7813 31.092 29.848C31.3053 29.8053 31.4973 29.784 31.668 29.784C31.8387 29.7413 32.0093 29.72 32.18 29.72C33.0333 29.72 33.716 29.9547 34.228 30.424C34.7827 30.8507 35.06 31.32 35.06 31.832C35.06 32.3867 34.7827 32.856 34.228 33.24C33.9293 33.4107 33.6947 33.4747 33.524 33.432C33.3533 33.3467 33.3533 33.1973 33.524 32.984C33.7373 32.728 33.716 32.408 33.46 32.024C33.2467 31.64 32.9267 31.2987 32.5 31C32.0307 30.616 31.3907 30.424 30.58 30.424C30.4947 30.424 30.388 30.424 30.26 30.424C30.132 30.424 30.0253 30.4453 29.94 30.488C28.1053 31.3413 26.164 31.768 24.116 31.768C21.5133 31.768 19.2947 31.256 17.46 30.232C15.668 29.1653 14.26 27.8427 13.236 26.264C13.236 26.52 13.1933 26.8187 13.108 27.16C12.852 27.9707 12.404 28.6747 11.764 29.272C11.9773 29.6987 12.084 30.1467 12.084 30.616C12.084 31.6827 11.636 32.664 10.74 33.56C10.228 34.1147 9.48133 34.6053 8.5 35.032C7.51867 35.416 6.58 35.608 5.684 35.608C4.95867 35.608 4.36133 35.4373 3.892 35.096C3.59333 34.8827 3.42267 34.6907 3.38 34.52C3.33733 34.3067 3.33733 34.1787 3.38 34.136C3.508 34.2213 3.7 34.264 3.956 34.264C4.468 34.264 4.916 34.0293 5.3 33.56C5.72667 33.048 5.98267 32.5787 6.068 32.152C6.15333 31.7253 6.28133 31.2773 6.452 30.808C6.62267 30.3387 6.92133 29.848 7.348 29.336C7.988 28.568 8.79867 28.184 9.78 28.184C10.4627 28.184 11.0173 28.3973 11.444 28.824C11.8707 28.312 12.1907 27.6293 12.404 26.776C12.4467 26.5627 12.468 26.3493 12.468 26.136C12.5107 25.9227 12.532 25.7307 12.532 25.56C12.532 25.176 12.5107 24.8987 12.468 24.728C11.828 23.192 11.508 21.5493 11.508 19.8C11.508 18.3067 11.7427 16.8133 12.212 15.32C12.724 13.784 13.492 12.3547 14.516 11.032C14.3453 11.0747 14.132 11.1173 13.876 11.16C13.6627 11.16 13.4493 11.16 13.236 11.16C12.6813 11.16 12.1267 11.0533 11.572 10.84C11.06 10.6267 10.5907 10.3067 10.164 9.88C10.036 9.92266 9.844 9.944 9.588 9.944C8.99067 9.944 8.35067 9.70933 7.668 9.24C7.028 8.77067 6.53733 8.13067 6.196 7.32C5.94 6.68 5.812 5.912 5.812 5.016C5.812 4.03467 5.96133 3.096 6.26 2.2C6.55867 1.304 7.00667 0.706665 7.604 0.407997C7.94533 0.194664 8.20133 0.10933 8.372 0.151997C8.54267 0.194665 8.67067 0.237333 8.756 0.279999C8.41467 0.578664 8.244 0.962664 8.244 1.432C8.244 1.85867 8.372 2.28533 8.628 2.712C8.884 3.096 9.16133 3.39466 9.46 3.608C9.80133 3.864 10.1427 4.16266 10.484 4.504C10.868 4.84533 11.2093 5.31467 11.508 5.912C11.7213 6.424 11.828 6.89333 11.828 7.32C11.828 8.344 11.4653 9.112 10.74 9.624C11.3373 10.136 12.1267 10.392 13.108 10.392H13.492C14.0893 10.392 14.708 10.2853 15.348 10.072C17.012 8.19466 19.2307 6.65866 22.004 5.464C24.7773 4.26933 28.148 3.672 32.116 3.672C33.0973 3.672 34.1 3.71466 35.124 3.8C36.148 3.88533 37.1933 4.01333 38.26 4.184C40.5213 4.52533 42.9747 5.08 45.62 5.848C48.308 6.616 50.9533 7.42667 53.556 8.28C56.1587 9.13333 58.484 9.92266 60.532 10.648C61.7693 9.92266 63.028 9.34666 64.308 8.92C65.588 8.49333 66.9107 8.28 68.276 8.28C69.4707 8.28 70.3667 8.536 70.964 9.048C71.604 9.56 71.924 10.136 71.924 10.776C71.924 11.4587 71.54 12.0773 70.772 12.632C70.0467 13.1867 68.8947 13.4427 67.316 13.4C66.164 15.1067 65.1187 16.984 64.18 19.032C63.2413 21.08 62.388 23.128 61.62 25.176C60.8947 27.224 60.276 29.1227 59.764 30.872C59.124 33.048 58.42 35.1173 57.652 37.08C56.9267 39.0427 55.8173 40.8347 54.324 42.456C56.9693 40.4507 59.38 38.1467 61.556 35.544C63.7747 32.9413 65.78 30.2747 67.572 27.544C68.7667 25.7093 70.2173 23.64 71.924 21.336C73.6307 18.9893 75.508 16.6427 77.556 14.296C79.604 11.9067 81.716 9.688 83.892 7.64C86.1107 5.54933 88.3293 3.84266 90.548 2.52C92.7667 1.15466 94.8787 0.386664 96.884 0.216C97.14 0.173331 97.396 0.151997 97.652 0.151997C97.908 0.151997 98.1427 0.151997 98.356 0.151997C100.831 0.151997 102.601 0.685331 103.668 1.752C104.735 2.776 105.268 3.88533 105.268 5.08C105.268 5.848 105.055 6.57333 104.628 7.256C104.201 7.896 103.625 8.344 102.9 8.6L102.772 7.96C103.796 7.36267 104.308 6.50933 104.308 5.4C104.308 4.54667 103.924 3.75733 103.156 3.032C102.431 2.30666 101.321 1.944 99.828 1.944C99.06 1.944 98.1853 2.072 97.204 2.328C95.668 2.75467 93.9613 3.62933 92.084 4.952C90.2067 6.27466 88.244 7.85333 86.196 9.688C84.1907 11.5227 82.2067 13.4853 80.244 15.576C78.324 17.624 76.532 19.608 74.868 21.528C73.204 23.448 71.7747 25.1333 70.58 26.584C69.428 28.0347 68.6173 29.08 68.148 29.72C67.38 30.7867 66.3987 32.0667 65.204 33.56C64.052 35.0533 62.7293 36.5893 61.236 38.168C59.7853 39.704 58.2493 41.1547 56.628 42.52C55.0067 43.8427 53.364 44.9307 51.7 45.784C50.036 46.5947 48.4147 47 46.836 47C45.9827 47 45.556 46.9147 45.556 46.744C45.556 46.5307 45.8333 46.296 46.388 46.04C46.9427 45.784 47.3053 45.5707 47.476 45.4C47.6893 45.2293 48.052 44.7173 48.564 43.864C49.076 43.0107 49.6733 41.9867 50.356 40.792C51.0813 39.5547 51.8067 38.2747 52.532 36.952C53.3 35.6293 53.9827 34.4133 54.58 33.304C55.1773 32.152 55.6253 31.2347 55.924 30.552C56.18 30.04 56.6493 29.1227 57.332 27.8C58.0147 26.4347 58.8467 24.8987 59.828 23.192C60.8093 21.4427 61.8333 19.6933 62.9 17.944C64.0093 16.152 65.0973 14.5947 66.164 13.272C65.8653 13.2293 65.524 13.1653 65.14 13.08C64.756 12.9947 64.3507 12.9093 63.924 12.824L62.068 12.248C60.7027 13.4 59.3587 14.7653 58.036 16.344C56.7133 17.9227 55.476 19.544 54.324 21.208C53.2147 22.8293 52.212 24.3653 51.316 25.816C50.42 27.2667 49.6947 28.44 49.14 29.336C47.86 31.512 46.2813 33.9227 44.404 36.568C42.5267 39.2133 40.4147 41.8587 38.068 44.504C35.7213 47.1493 33.204 49.5813 30.516 51.8C27.8707 54.0187 25.0973 55.7893 22.196 57.112C19.2947 58.4773 16.372 59.16 13.428 59.16ZM68.532 12.376C69.2573 12.3333 69.8333 12.1413 70.26 11.8C70.6867 11.4587 70.9 11.0747 70.9 10.648C70.9 10.264 70.6867 9.92266 70.26 9.624C69.876 9.32533 69.2147 9.176 68.276 9.176C67.4653 9.21866 66.612 9.45333 65.716 9.88C64.82 10.264 63.924 10.7973 63.028 11.48C63.7533 11.736 64.4147 11.928 65.012 12.056C65.6093 12.184 66.2707 12.2693 66.996 12.312C67.2947 11.9707 67.572 11.672 67.828 11.416C68.1267 11.1173 68.4253 10.8827 68.724 10.712L69.108 10.904C68.9373 11.1173 68.7667 11.352 68.596 11.608C68.4253 11.864 68.2333 12.12 68.02 12.376H68.532ZM73.588 52.312C72.692 52.312 71.8813 52.0347 71.156 51.48C70.6013 51.096 70.196 50.52 69.94 49.752C69.684 48.984 69.556 48.1307 69.556 47.192C69.556 46.424 69.62 45.6133 69.748 44.76C69.9187 43.9067 70.132 43.032 70.388 42.136C71.1133 39.6613 72.2227 36.9307 73.716 33.944C75.252 30.9573 77.0013 27.928 78.964 24.856C80.9267 21.784 82.996 18.904 85.172 16.216C87.3907 13.4853 89.5453 11.16 91.636 9.24L92.02 9.688C90.612 11.3947 89.1827 13.4 87.732 15.704C86.324 17.9653 84.9373 20.376 83.572 22.936C82.2493 25.496 80.9907 28.0773 79.796 30.68C78.644 33.24 77.6413 35.6933 76.788 38.04C76.7453 38.168 76.5747 38.616 76.276 39.384C76.02 40.152 75.7213 41.112 75.38 42.264C75.0813 43.3733 74.804 44.504 74.548 45.656C74.292 46.808 74.164 47.8107 74.164 48.664C74.164 49.2613 74.2493 49.752 74.42 50.136C74.5907 50.52 74.868 50.712 75.252 50.712C75.636 50.712 76.148 50.52 76.788 50.136C77.0867 49.9227 77.364 49.7093 77.62 49.496C77.876 49.3253 78.132 49.112 78.388 48.856L78.9 49.432C78.3027 50.1147 77.5133 50.7547 76.532 51.352C75.5933 51.992 74.612 52.312 73.588 52.312ZM89.249 47.576C88.1397 47.576 87.0943 47.32 86.113 46.808C85.1317 46.2533 84.4063 45.3787 83.937 44.184C83.6383 43.416 83.489 42.5413 83.489 41.56C83.489 40.3653 83.7237 39.192 84.193 38.04C84.7903 36.632 85.665 35.2453 86.817 33.88C87.969 32.5147 89.249 31.2773 90.657 30.168C92.065 29.0587 93.473 28.184 94.881 27.544C96.289 26.8613 97.5477 26.52 98.657 26.52C99.5957 26.52 100.342 26.776 100.897 27.288C101.281 27.672 101.473 28.2267 101.473 28.952C101.473 29.8907 101.11 30.9787 100.385 32.216C99.7023 33.4107 98.721 34.456 97.441 35.352C96.6303 35.9067 95.6703 36.376 94.561 36.76C93.4943 37.1013 92.3637 37.272 91.169 37.272C90.785 37.272 90.3797 37.2507 89.953 37.208C89.569 37.1653 89.185 37.1013 88.801 37.016C88.5023 37.3573 88.1397 37.912 87.713 38.68C87.329 39.4053 86.9877 40.216 86.689 41.112C86.433 42.008 86.305 42.8613 86.305 43.672C86.3477 44.7813 86.6463 45.5707 87.201 46.04C87.7983 46.4667 88.5023 46.68 89.313 46.68C90.9343 46.68 92.4917 46.168 93.985 45.144C95.521 44.0773 96.9077 42.776 98.145 41.24C99.3823 39.704 100.428 38.232 101.281 36.824C101.409 36.6533 101.516 36.568 101.601 36.568C101.686 36.5253 101.75 36.504 101.793 36.504C101.921 36.504 102.028 36.568 102.113 36.696C102.241 36.824 102.262 36.9947 102.177 37.208C101.622 38.104 100.897 39.1707 100.001 40.408C99.1477 41.6453 98.1237 42.84 96.929 43.992C95.777 45.1013 94.4757 46.0187 93.025 46.744C92.4703 47.0427 91.8517 47.256 91.169 47.384C90.529 47.512 89.889 47.576 89.249 47.576ZM90.593 36.376C92.5983 36.376 94.4117 35.864 96.033 34.84C97.697 33.7733 98.8917 32.4933 99.617 31C99.8303 30.6587 99.9583 30.3387 100.001 30.04C100.086 29.7413 100.129 29.5067 100.129 29.336C100.129 28.6107 99.7237 28.248 98.913 28.248C98.401 28.248 97.825 28.376 97.185 28.632C96.5877 28.888 96.0543 29.1867 95.585 29.528C94.7743 30.1253 93.921 30.872 93.025 31.768C92.1717 32.6213 91.4037 33.4747 90.721 34.328C90.0383 35.1387 89.5263 35.7787 89.185 36.248C89.3983 36.2907 89.633 36.3333 89.889 36.376C90.145 36.376 90.3797 36.376 90.593 36.376ZM104.727 47.576C104.556 47.576 104.364 47.5547 104.151 47.512C103.937 47.512 103.724 47.4907 103.51 47.448C102.273 47.1493 101.377 46.5947 100.823 45.784C100.311 44.9307 100.055 43.9067 100.055 42.712C100.055 41.7733 100.183 40.7707 100.439 39.704C100.737 38.5947 101.1 37.4427 101.527 36.248C102.252 34.3707 103.148 32.3013 104.215 30.04C105.324 27.736 106.561 25.3893 107.927 23C109.335 20.568 110.807 18.2213 112.343 15.96C113.921 13.6987 115.543 11.6507 117.207 9.816C118.188 8.70666 119.169 7.704 120.151 6.808C121.175 5.912 122.177 5.18666 123.159 4.632C124.823 3.608 126.359 3.096 127.767 3.096C128.62 3.096 129.281 3.30933 129.751 3.736C130.263 4.12 130.519 4.73866 130.519 5.592C130.519 6.14667 130.391 6.78667 130.135 7.512C129.921 8.19467 129.537 8.984 128.983 9.88C127.916 11.672 126.529 13.5493 124.823 15.512C123.159 17.4747 121.345 19.3947 119.383 21.272C117.42 23.1067 115.436 24.792 113.431 26.328C111.468 27.864 109.612 29.1227 107.863 30.104C107.009 31.64 106.199 33.2827 105.431 35.032C104.663 36.7387 104.044 38.3813 103.575 39.96C103.105 41.496 102.871 42.8187 102.871 43.928C102.871 44.7813 103.041 45.464 103.383 45.976C103.724 46.488 104.257 46.744 104.983 46.744C105.921 46.744 107.009 46.3173 108.247 45.464C109.484 44.6107 110.764 43.4587 112.087 42.008C113.452 40.5147 114.732 38.7867 115.927 36.824C116.14 36.568 116.353 36.44 116.567 36.44C116.695 36.44 116.78 36.5253 116.823 36.696C116.908 36.8667 116.908 37.0373 116.823 37.208C114.732 40.408 112.684 42.9467 110.679 44.824C108.716 46.6587 106.732 47.576 104.727 47.576ZM108.311 28.888C109.676 28.12 111.255 26.9467 113.047 25.368C114.881 23.7893 116.737 22.04 118.615 20.12C120.492 18.1573 122.22 16.216 123.799 14.296C125.42 12.376 126.679 10.6907 127.575 9.24C128.044 8.472 128.385 7.81066 128.599 7.256C128.812 6.70133 128.919 6.232 128.919 5.848C128.919 5.08 128.577 4.696 127.895 4.696C126.999 4.696 125.804 5.31467 124.311 6.552C123.244 7.448 122.241 8.45067 121.303 9.56C120.364 10.6267 119.703 11.416 119.319 11.928C117.356 14.5307 115.457 17.368 113.623 20.44C111.788 23.4693 110.017 26.2853 108.311 28.888ZM128.056 23.704C127.458 23.704 126.989 23.512 126.648 23.128C126.349 22.744 126.2 22.296 126.2 21.784C126.2 20.9307 126.498 20.248 127.096 19.736C127.693 19.224 128.333 18.968 129.016 18.968C129.613 18.968 130.082 19.16 130.424 19.544C130.765 19.8853 130.936 20.3333 130.936 20.888C130.936 21.6987 130.637 22.3813 130.04 22.936C129.442 23.448 128.781 23.704 128.056 23.704ZM117.432 47.768C116.28 47.768 115.298 47.4267 114.488 46.744C113.72 46.0187 113.336 44.9947 113.336 43.672C113.336 42.9893 113.464 42.2 113.72 41.304C114.018 40.3653 114.36 39.512 114.744 38.744C115.17 37.9333 115.533 37.272 115.832 36.76C116.173 36.248 116.344 35.992 116.344 35.992L122.616 26.712C122.872 26.4987 123.192 26.3707 123.576 26.328C123.96 26.2427 124.365 26.2 124.792 26.2C125.389 26.2 125.901 26.264 126.328 26.392C126.754 26.4773 126.925 26.6267 126.84 26.84L120.504 36.248C120.376 36.4187 119.949 37.016 119.224 38.04C118.541 39.0213 117.88 40.1093 117.24 41.304C116.429 42.7973 116.024 44.0773 116.024 45.144C116.024 46.296 116.557 46.872 117.624 46.872C117.965 46.872 118.37 46.808 118.84 46.68C119.352 46.5093 119.928 46.2533 120.568 45.912C123.256 44.4187 126.008 41.3893 128.824 36.824C128.952 36.6107 129.058 36.504 129.144 36.504C129.272 36.4613 129.357 36.44 129.4 36.44C129.613 36.44 129.741 36.5253 129.784 36.696C129.869 36.824 129.848 36.9947 129.72 37.208C128.184 39.5547 126.669 41.5813 125.176 43.288C123.725 44.9947 122.189 46.232 120.568 47C119.501 47.512 118.456 47.768 117.432 47.768ZM146.945 36.44C147.073 36.44 147.18 36.504 147.265 36.632C147.35 36.76 147.35 36.952 147.265 37.208C145.26 40.408 142.977 42.6907 140.417 44.056C137.857 45.3787 135.318 46.2747 132.801 46.744C131.777 47 130.71 47.128 129.601 47.128C128.15 47.128 126.785 46.8507 125.505 46.296C124.225 45.7413 123.308 44.824 122.753 43.544C122.497 42.904 122.369 42.264 122.369 41.624C122.369 40.6853 122.604 39.8747 123.073 39.192C123.585 38.4667 124.118 37.9547 124.673 37.656C125.014 37.4427 125.377 37.3147 125.761 37.272C126.188 37.1867 126.614 37.144 127.041 37.144C127.596 37.144 128.086 37.208 128.513 37.336C128.641 37.1227 129.025 36.504 129.665 35.48C130.305 34.4133 131.094 33.176 132.033 31.768C132.972 30.3173 133.953 28.952 134.977 27.672C136.086 26.3067 137.153 25.176 138.177 24.28C139.201 23.384 139.948 22.8933 140.417 22.808C140.545 22.7653 140.673 22.744 140.801 22.744C140.929 22.744 141.036 22.744 141.121 22.744C141.59 22.744 141.932 22.8507 142.145 23.064C142.401 23.2773 142.529 23.5333 142.529 23.832C142.529 24.1307 142.358 24.4293 142.017 24.728C141.718 25.0267 141.27 25.176 140.673 25.176C139.99 25.176 139.308 25.368 138.625 25.752C137.942 26.0933 137.537 26.4987 137.409 26.968C137.281 27.352 137.217 27.7787 137.217 28.248C137.217 29.016 137.345 29.784 137.601 30.552C137.9 31.32 138.177 32.088 138.433 32.856C138.689 33.624 138.924 34.4133 139.137 35.224C139.393 36.0347 139.521 36.9093 139.521 37.848C139.521 38.7013 139.393 39.576 139.137 40.472C138.668 42.264 137.793 43.7147 136.513 44.824C138.049 44.312 139.692 43.4587 141.441 42.264C143.19 41.0693 144.833 39.256 146.369 36.824C146.497 36.6107 146.604 36.504 146.689 36.504C146.817 36.4613 146.902 36.44 146.945 36.44ZM128.833 46.296C129.388 46.296 129.964 46.2107 130.561 46.04C131.158 45.8693 131.734 45.592 132.289 45.208C133.057 44.7387 133.697 43.992 134.209 42.968C134.721 41.944 135.126 40.8347 135.425 39.64C135.766 38.4027 136.001 37.2293 136.129 36.12C136.3 35.0107 136.385 34.136 136.385 33.496C136.385 32.6 136.3 31.704 136.129 30.808C136.001 29.912 135.958 29.0373 136.001 28.184C135.062 29.464 133.996 30.8933 132.801 32.472C131.649 34.0507 130.518 35.8 129.409 37.72C129.921 38.0187 130.348 38.3813 130.689 38.808C131.073 39.192 131.329 39.8107 131.457 40.664C131.5 41.0053 131.393 41.3893 131.137 41.816C130.924 42.2 130.497 42.392 129.857 42.392C129.43 42.392 129.217 42.264 129.217 42.008C129.217 41.7947 129.345 41.6027 129.601 41.432C130.028 41.0907 130.241 40.7067 130.241 40.28C130.241 40.024 130.177 39.768 130.049 39.512C129.75 38.9573 129.324 38.552 128.769 38.296C128.257 38.04 127.702 37.912 127.105 37.912C126.252 37.912 125.526 38.168 124.929 38.68C124.417 39.1067 124.054 39.576 123.841 40.088C123.628 40.5573 123.521 41.048 123.521 41.56C123.521 42.3707 123.734 43.1387 124.161 43.864C124.588 44.5467 125.1 45.0587 125.697 45.4C126.636 45.9973 127.681 46.296 128.833 46.296ZM164.508 36.44C164.636 36.44 164.742 36.504 164.828 36.632C164.913 36.76 164.913 36.952 164.828 37.208C162.822 40.408 160.54 42.6907 157.98 44.056C155.42 45.3787 152.881 46.2747 150.364 46.744C149.34 47 148.273 47.128 147.164 47.128C145.713 47.128 144.348 46.8507 143.068 46.296C141.788 45.7413 140.87 44.824 140.316 43.544C140.059 42.904 139.931 42.264 139.931 41.624C139.931 40.6853 140.166 39.8747 140.636 39.192C141.148 38.4667 141.681 37.9547 142.236 37.656C142.577 37.4427 142.94 37.3147 143.324 37.272C143.75 37.1867 144.177 37.144 144.604 37.144C145.158 37.144 145.649 37.208 146.076 37.336C146.204 37.1227 146.588 36.504 147.228 35.48C147.868 34.4133 148.657 33.176 149.595 31.768C150.534 30.3173 151.516 28.952 152.54 27.672C153.649 26.3067 154.716 25.176 155.74 24.28C156.764 23.384 157.51 22.8933 157.98 22.808C158.108 22.7653 158.236 22.744 158.364 22.744C158.492 22.744 158.598 22.744 158.684 22.744C159.153 22.744 159.494 22.8507 159.708 23.064C159.964 23.2773 160.092 23.5333 160.092 23.832C160.092 24.1307 159.921 24.4293 159.58 24.728C159.281 25.0267 158.833 25.176 158.236 25.176C157.553 25.176 156.87 25.368 156.188 25.752C155.505 26.0933 155.1 26.4987 154.972 26.968C154.844 27.352 154.78 27.7787 154.78 28.248C154.78 29.016 154.908 29.784 155.164 30.552C155.462 31.32 155.74 32.088 155.996 32.856C156.252 33.624 156.486 34.4133 156.7 35.224C156.956 36.0347 157.083 36.9093 157.083 37.848C157.083 38.7013 156.956 39.576 156.7 40.472C156.23 42.264 155.356 43.7147 154.076 44.824C155.612 44.312 157.254 43.4587 159.003 42.264C160.753 41.0693 162.396 39.256 163.932 36.824C164.06 36.6107 164.166 36.504 164.252 36.504C164.38 36.4613 164.465 36.44 164.508 36.44ZM146.396 46.296C146.95 46.296 147.526 46.2107 148.124 46.04C148.721 45.8693 149.297 45.592 149.852 45.208C150.62 44.7387 151.26 43.992 151.772 42.968C152.284 41.944 152.689 40.8347 152.988 39.64C153.329 38.4027 153.564 37.2293 153.692 36.12C153.862 35.0107 153.948 34.136 153.948 33.496C153.948 32.6 153.862 31.704 153.692 30.808C153.564 29.912 153.521 29.0373 153.564 28.184C152.625 29.464 151.558 30.8933 150.364 32.472C149.212 34.0507 148.081 35.8 146.972 37.72C147.484 38.0187 147.91 38.3813 148.252 38.808C148.636 39.192 148.892 39.8107 149.02 40.664C149.062 41.0053 148.956 41.3893 148.7 41.816C148.486 42.2 148.06 42.392 147.42 42.392C146.993 42.392 146.78 42.264 146.78 42.008C146.78 41.7947 146.908 41.6027 147.164 41.432C147.59 41.0907 147.804 40.7067 147.804 40.28C147.804 40.024 147.74 39.768 147.612 39.512C147.313 38.9573 146.886 38.552 146.332 38.296C145.82 38.04 145.265 37.912 144.668 37.912C143.814 37.912 143.089 38.168 142.492 38.68C141.98 39.1067 141.617 39.576 141.404 40.088C141.19 40.5573 141.084 41.048 141.084 41.56C141.084 42.3707 141.297 43.1387 141.724 43.864C142.15 44.5467 142.662 45.0587 143.26 45.4C144.198 45.9973 145.244 46.296 146.396 46.296ZM166.07 47.384C164.875 47.384 163.958 46.936 163.318 46.04C162.678 45.1013 162.358 43.9067 162.358 42.456C162.358 40.8773 162.785 39.0427 163.638 36.952C164.107 35.8 164.811 34.6267 165.75 33.432C166.689 32.1947 167.777 31.064 169.014 30.04C170.251 28.9733 171.574 28.12 172.982 27.48C174.433 26.7973 175.905 26.456 177.398 26.456C178.55 26.456 179.339 26.7547 179.766 27.352C180.193 27.9493 180.406 28.6747 180.406 29.528C180.406 30.3387 180.278 31.1707 180.022 32.024L183.606 26.584C183.905 26.3707 184.566 26.264 185.59 26.264C186.358 26.264 187.083 26.3493 187.766 26.52C188.491 26.6907 188.705 26.9467 188.406 27.288C188.065 27.7147 187.467 28.376 186.614 29.272C185.803 30.1253 184.907 31.1493 183.926 32.344C182.987 33.5387 182.091 34.7973 181.238 36.12C180.811 36.8453 180.171 37.912 179.318 39.32C178.507 40.728 177.867 42.072 177.398 43.352C177.142 44.12 177.014 44.7387 177.014 45.208C177.014 46.104 177.398 46.552 178.166 46.552C178.593 46.552 179.169 46.4027 179.894 46.104C180.619 45.7627 181.323 45.3147 182.006 44.76C183.371 43.6507 184.566 42.328 185.59 40.792C186.614 39.2133 187.531 37.8267 188.342 36.632C188.385 36.5893 188.427 36.5467 188.47 36.504C188.555 36.4613 188.683 36.44 188.854 36.44C189.025 36.44 189.153 36.5253 189.238 36.696C189.323 36.824 189.281 36.9947 189.11 37.208C187.915 39 186.742 40.6853 185.59 42.264C184.438 43.8 183.265 45.0373 182.07 45.976C180.875 46.9147 179.574 47.384 178.166 47.384C177.057 47.384 176.161 47.064 175.478 46.424C174.838 45.7413 174.518 44.824 174.518 43.672C174.518 43.16 174.561 42.6267 174.646 42.072C174.774 41.5173 174.923 41.0053 175.094 40.536C174.411 41.432 173.558 42.4133 172.534 43.48C171.553 44.5467 170.507 45.464 169.398 46.232C168.289 47 167.179 47.384 166.07 47.384ZM166.646 46.168C167.499 46.168 168.395 45.8267 169.334 45.144C170.315 44.4613 171.297 43.5867 172.278 42.52C173.259 41.4107 174.155 40.2373 174.966 39C175.649 37.976 176.31 36.888 176.95 35.736C177.633 34.584 178.187 33.4533 178.614 32.344C179.083 31.2347 179.318 30.232 179.318 29.336C179.318 27.9707 178.827 27.288 177.846 27.288C177.163 27.288 176.374 27.5867 175.478 28.184C174.582 28.7813 173.665 29.5493 172.726 30.488C171.83 31.4267 170.977 32.4507 170.166 33.56C169.398 34.6267 168.779 35.672 168.31 36.696C168.182 36.952 167.862 37.5707 167.35 38.552C166.881 39.5333 166.411 40.6 165.942 41.752C165.515 42.904 165.302 43.9067 165.302 44.76C165.302 45.6987 165.75 46.168 166.646 46.168ZM151.831 109.888C151.489 109.888 151.319 109.717 151.319 109.376C151.319 109.205 151.404 109.035 151.575 108.864C151.745 108.693 151.831 108.48 151.831 108.224C151.831 107.883 151.724 107.52 151.511 107.136C151.34 106.752 151.105 106.411 150.807 106.112C149.868 106.112 149.143 105.813 148.631 105.216C148.119 104.619 147.863 103.936 147.863 103.168C147.863 102.784 147.927 102.443 148.055 102.144C147.287 101.376 146.903 100.245 146.903 98.752C146.903 97.472 147.201 96.0427 147.799 94.464C148.396 92.8853 149.271 91.4133 150.423 90.048L150.743 89.664C149.292 88.9387 147.884 88.2347 146.519 87.552C145.196 86.8693 143.916 86.2293 142.679 85.632L142.615 85.696C142.572 85.696 142.529 85.7173 142.487 85.76H142.423L142.231 85.888C141.036 86.656 140.247 87.552 139.863 88.576C140.375 88.704 140.801 88.9813 141.143 89.408C141.484 89.8773 141.655 90.4107 141.655 91.008C141.655 91.52 141.505 91.9893 141.207 92.416C140.78 93.056 140.481 93.6533 140.311 94.208C140.183 94.8053 140.119 95.3387 140.119 95.808C140.119 96.3627 140.183 96.832 140.311 97.216C140.439 97.6427 140.567 97.9627 140.695 98.176C140.055 98.048 139.457 97.7067 138.903 97.152C138.391 96.64 137.964 96.064 137.623 95.424C137.281 94.8267 137.047 94.3573 136.919 94.016C136.663 93.248 136.535 92.5227 136.535 91.84C136.535 90.9867 136.727 90.24 137.111 89.6C137.537 89.0027 138.156 88.64 138.967 88.512H139.223C139.351 88.1707 139.5 87.872 139.671 87.616C139.884 87.3173 140.097 87.04 140.311 86.784C138.988 87.3387 137.687 87.7867 136.407 88.128C135.127 88.512 133.932 88.704 132.823 88.704C131.372 88.704 130.241 88.4267 129.431 87.872C128.62 87.2747 128.215 86.528 128.215 85.632C128.215 84.8213 128.556 83.9893 129.239 83.136C129.665 82.5813 130.284 82.1973 131.095 81.984C131.948 81.728 132.865 81.6 133.847 81.6C134.7 81.6 135.596 81.6853 136.535 81.856C137.516 81.984 138.433 82.2187 139.287 82.56C139.756 82.7307 140.204 82.9013 140.631 83.072C141.057 83.2 141.484 83.3707 141.911 83.584C143.319 82.4747 144.663 81.3013 145.943 80.064C147.223 78.784 148.353 77.632 149.335 76.608C148.78 76.8213 148.14 76.992 147.415 77.12C146.732 77.2053 146.049 77.2267 145.367 77.184C144.855 77.9093 144.065 78.272 142.999 78.272C142.444 78.272 141.804 78.144 141.079 77.888C140.353 77.5893 139.543 77.0773 138.647 76.352C137.751 75.6267 136.983 74.8373 136.343 73.984C135.745 73.088 135.447 72.2773 135.447 71.552C135.447 71.1253 135.511 70.848 135.639 70.72C135.767 70.592 135.873 70.528 135.959 70.528C136.129 70.8267 136.364 71.168 136.663 71.552C137.004 71.936 137.324 72.192 137.623 72.32C137.793 72.4053 137.943 72.4693 138.071 72.512C138.241 72.512 138.412 72.512 138.583 72.512C138.924 72.512 139.265 72.4693 139.607 72.384C139.948 72.2987 140.353 72.256 140.823 72.256C141.079 72.256 141.356 72.2773 141.655 72.32C141.953 72.3627 142.273 72.448 142.615 72.576C143.425 72.832 144.151 73.344 144.791 74.112C145.431 74.8373 145.708 75.6267 145.623 76.48C146.561 76.5227 147.521 76.3947 148.503 76.096C149.527 75.7547 150.295 75.4347 150.807 75.136C151.66 74.2827 152.535 73.3867 153.431 72.448C154.369 71.4667 155.308 70.5067 156.247 69.568C155.649 69.952 154.924 70.144 154.071 70.144C153.815 70.144 153.559 70.1227 153.303 70.08C153.089 70.0373 152.876 69.952 152.663 69.824C152.364 69.6533 152.151 69.4187 152.023 69.12C151.895 68.7787 151.831 68.4587 151.831 68.16C151.831 67.6053 151.98 67.136 152.279 66.752C152.407 66.624 152.513 66.56 152.599 66.56C152.727 66.56 152.791 66.7947 152.791 67.264C152.791 67.648 153.025 67.9893 153.495 68.288C154.007 68.544 154.583 68.736 155.223 68.864C155.863 68.9493 156.353 68.9493 156.695 68.864C156.908 68.736 157.057 68.672 157.143 68.672C159.873 65.8987 162.732 63.1467 165.719 60.416C168.705 57.6427 171.735 55.232 174.807 53.184C172.545 52.7147 170.049 52.2667 167.319 51.84C164.631 51.4133 162.071 51.2 159.639 51.2C158.743 51.2 157.868 51.2427 157.015 51.328C156.204 51.3707 155.436 51.4773 154.711 51.648C153.303 51.9467 151.895 52.4373 150.487 53.12C149.121 53.8027 147.991 54.5707 147.095 55.424C146.241 56.2773 145.879 57.1307 146.007 57.984L145.111 58.112C145.068 58.0267 145.047 57.92 145.047 57.792C145.047 57.664 145.047 57.5573 145.047 57.472C145.047 56.4053 145.409 55.296 146.135 54.144C146.903 52.992 147.884 51.9467 149.079 51.008C150.316 50.0693 151.639 49.4293 153.047 49.088C154.199 48.832 155.5 48.704 156.951 48.704C158.956 48.704 161.089 48.9173 163.351 49.344C165.612 49.728 167.852 50.1973 170.071 50.752C172.332 51.3067 174.401 51.8187 176.279 52.288C177.217 51.6907 178.135 51.1573 179.031 50.688C179.969 50.2187 180.908 49.8133 181.847 49.472C182.7 49.1307 183.553 48.896 184.407 48.768C185.303 48.5973 186.156 48.512 186.967 48.512C188.161 48.512 189.164 48.6827 189.975 49.024C191.255 49.6213 191.895 50.4107 191.895 51.392C191.895 52.032 191.532 52.6507 190.807 53.248C190.081 53.8453 188.908 54.272 187.287 54.528C186.348 54.656 185.388 54.72 184.407 54.72C183.297 54.72 182.188 54.656 181.079 54.528C179.969 54.3573 178.86 54.144 177.751 53.888C175.532 55.424 173.335 57.2373 171.159 59.328C169.025 61.4187 166.913 63.616 164.823 65.92C162.775 68.1813 160.748 70.4 158.743 72.576C156.737 74.7093 154.796 76.6507 152.919 78.4C151.639 79.552 150.273 80.6827 148.823 81.792C147.415 82.8587 145.964 83.8187 144.471 84.672C145.751 85.2267 147.009 85.824 148.247 86.464C149.484 87.104 150.7 87.7227 151.895 88.32C152.876 87.2107 154.007 86.144 155.287 85.12C154.988 85.248 154.625 85.312 154.199 85.312C153.857 85.312 153.559 85.248 153.303 85.12C152.492 84.7787 152.087 84.2667 152.087 83.584C152.087 83.1147 152.236 82.7307 152.535 82.432C152.62 82.304 152.727 82.24 152.855 82.24C153.196 82.24 153.324 82.4747 153.239 82.944C153.196 83.4133 153.559 83.776 154.327 84.032C155.137 84.288 155.799 84.3733 156.311 84.288C158.444 82.624 160.769 81.152 163.287 79.872C165.847 78.592 168.407 77.5893 170.967 76.864C173.527 76.1387 175.937 75.776 178.199 75.776C181.74 75.776 184.343 76.5653 186.007 78.144C187.671 79.68 188.503 81.4933 188.503 83.584C188.503 85.2907 187.969 87.0187 186.903 88.768C185.879 90.5173 184.343 92.032 182.295 93.312C180.289 94.6347 177.815 95.5307 174.871 96C174.401 96.0427 173.911 96.0853 173.399 96.128C172.887 96.2133 172.375 96.256 171.863 96.256C168.62 96.256 165.271 95.616 161.815 94.336C158.359 93.0987 154.988 91.6907 151.703 90.112L151.447 90.432C151.148 90.816 150.849 91.2 150.551 91.584C150.295 91.968 150.06 92.352 149.847 92.736C149.889 93.248 150.103 93.8453 150.487 94.528C150.871 95.2533 151.297 95.552 151.767 95.424C151.852 95.424 151.895 95.4027 151.895 95.36C151.937 95.36 151.98 95.36 152.023 95.36C152.321 95.36 152.471 95.488 152.471 95.744C152.471 95.9147 152.343 96.1067 152.087 96.32C151.831 96.576 151.511 96.704 151.127 96.704C150.572 96.704 150.06 96.384 149.591 95.744C149.42 95.5307 149.313 95.232 149.271 94.848C149.228 94.5067 149.207 94.1867 149.207 93.888C148.396 95.6373 147.991 97.1947 147.991 98.56C147.991 99.6267 148.247 100.587 148.759 101.44C148.801 101.44 148.865 101.483 148.951 101.568C149.164 101.781 149.441 101.973 149.783 102.144C150.167 102.357 150.615 102.464 151.127 102.464C151.383 102.464 151.66 102.443 151.959 102.4C152.3 102.357 152.62 102.251 152.919 102.08C153.431 101.867 153.985 101.76 154.583 101.76C155.436 101.76 156.161 101.995 156.759 102.464C156.972 102.635 157.164 102.869 157.335 103.168C157.505 103.509 157.591 103.872 157.591 104.256C157.591 104.555 157.484 104.917 157.271 105.344C157.228 105.515 157.143 105.6 157.015 105.6C156.972 105.6 156.929 105.515 156.887 105.344C156.844 105.216 156.823 105.067 156.823 104.896C156.823 104.384 156.481 104.128 155.799 104.128C155.415 104.128 154.988 104.277 154.519 104.576C153.623 105.259 152.855 105.685 152.215 105.856C152.684 106.197 153.004 106.539 153.175 106.88C153.388 107.392 153.495 107.797 153.495 108.096C153.495 108.651 153.303 109.077 152.919 109.376C152.577 109.717 152.236 109.888 151.895 109.888H151.831ZM184.983 53.568C186.903 53.568 188.289 53.3547 189.143 52.928C189.996 52.4587 190.423 51.968 190.423 51.456C190.423 51.0293 190.167 50.6667 189.655 50.368C189.143 50.0693 188.417 49.92 187.479 49.92C186.924 49.92 186.327 49.984 185.687 50.112C185.047 50.1973 184.364 50.3893 183.639 50.688C182.188 51.2427 180.737 51.9893 179.287 52.928C180.439 53.1413 181.484 53.312 182.423 53.44C183.361 53.5253 184.215 53.568 184.983 53.568ZM170.007 93.568C170.732 93.568 171.479 93.5467 172.247 93.504C173.057 93.4613 173.868 93.376 174.679 93.248C177.239 92.864 179.351 92.16 181.015 91.136C182.721 90.1547 184.001 88.9813 184.855 87.616C185.708 86.2507 186.135 84.9067 186.135 83.584C186.135 81.792 185.388 80.2347 183.895 78.912C182.401 77.5467 180.14 76.864 177.111 76.864C174.593 76.864 171.884 77.3973 168.983 78.464C166.081 79.5307 163.308 80.8747 160.663 82.496C159.767 83.52 159.319 84.5867 159.319 85.696C159.404 85.696 159.511 85.7173 159.639 85.76C159.767 85.76 159.916 85.7813 160.087 85.824C160.556 85.9947 160.833 86.272 160.919 86.656C161.047 86.9973 161.111 87.296 161.111 87.552V87.936C161.111 88.192 161.132 88.4267 161.175 88.64C161.217 88.896 161.303 89.088 161.431 89.216C161.687 89.5147 161.964 89.728 162.263 89.856C162.561 90.0267 162.796 90.1547 162.967 90.24C162.668 90.368 162.305 90.432 161.879 90.432C161.324 90.432 160.769 90.3467 160.215 90.176C159.703 90.0053 159.34 89.8347 159.127 89.664C158.7 89.3227 158.38 88.96 158.167 88.576C157.953 88.192 157.847 87.8293 157.847 87.488C157.847 86.72 158.167 86.1867 158.807 85.888C158.764 85.376 158.807 84.9067 158.935 84.48C159.105 84.0533 159.297 83.648 159.511 83.264C156.951 84.928 154.732 86.7627 152.855 88.768C155.5 90.0907 158.188 91.2213 160.919 92.16C163.692 93.0987 166.721 93.568 170.007 93.568ZM132.759 87.744C133.953 87.744 135.212 87.4667 136.535 86.912C137.857 86.3573 139.18 85.6107 140.503 84.672C139.137 84.0747 137.857 83.6053 136.663 83.264C135.468 82.9227 134.38 82.752 133.399 82.752C132.844 82.752 132.311 82.8373 131.799 83.008C131.287 83.136 130.839 83.3707 130.455 83.712C129.772 84.3093 129.431 84.9707 129.431 85.696C129.431 86.2507 129.687 86.7413 130.199 87.168C130.753 87.552 131.607 87.744 132.759 87.744ZM203.993 64.704C203.396 64.704 202.926 64.512 202.585 64.128C202.286 63.744 202.137 63.296 202.137 62.784C202.137 61.9307 202.436 61.248 203.033 60.736C203.63 60.224 204.27 59.968 204.953 59.968C205.55 59.968 206.02 60.16 206.361 60.544C206.702 60.8853 206.873 61.3333 206.873 61.888C206.873 62.6987 206.574 63.3813 205.977 63.936C205.38 64.448 204.718 64.704 203.993 64.704ZM193.369 88.768C192.217 88.768 191.236 88.4267 190.425 87.744C189.657 87.0187 189.273 85.9947 189.273 84.672C189.273 83.9893 189.401 83.2 189.657 82.304C189.956 81.3653 190.297 80.512 190.681 79.744C191.108 78.9333 191.47 78.272 191.769 77.76C192.11 77.248 192.281 76.992 192.281 76.992L198.553 67.712C198.809 67.4987 199.129 67.3707 199.513 67.328C199.897 67.2427 200.302 67.2 200.729 67.2C201.326 67.2 201.838 67.264 202.265 67.392C202.692 67.4773 202.862 67.6267 202.777 67.84L196.441 77.248C196.313 77.4187 195.886 78.016 195.161 79.04C194.478 80.0213 193.817 81.1093 193.177 82.304C192.366 83.7973 191.961 85.0773 191.961 86.144C191.961 87.296 192.494 87.872 193.561 87.872C193.902 87.872 194.308 87.808 194.777 87.68C195.289 87.5093 195.865 87.2533 196.505 86.912C199.193 85.4187 201.945 82.3893 204.761 77.824C204.889 77.6107 204.996 77.504 205.081 77.504C205.209 77.4613 205.294 77.44 205.337 77.44C205.55 77.44 205.678 77.5253 205.721 77.696C205.806 77.824 205.785 77.9947 205.657 78.208C204.121 80.5547 202.606 82.5813 201.113 84.288C199.662 85.9947 198.126 87.232 196.505 88C195.438 88.512 194.393 88.768 193.369 88.768ZM209.187 88.576C208.077 88.576 207.032 88.32 206.051 87.808C205.069 87.2533 204.344 86.3787 203.875 85.184C203.576 84.416 203.427 83.5413 203.427 82.56C203.427 81.3653 203.661 80.192 204.131 79.04C204.728 77.632 205.603 76.2453 206.755 74.88C207.907 73.5147 209.187 72.2773 210.595 71.168C212.003 70.0587 213.411 69.184 214.819 68.544C216.227 67.8613 217.485 67.52 218.595 67.52C219.533 67.52 220.28 67.776 220.835 68.288C221.219 68.672 221.411 69.2267 221.411 69.952C221.411 70.8907 221.048 71.9787 220.323 73.216C219.64 74.4107 218.659 75.456 217.378 76.352C216.568 76.9067 215.608 77.376 214.499 77.76C213.432 78.1013 212.301 78.272 211.107 78.272C210.723 78.272 210.317 78.2507 209.891 78.208C209.507 78.1653 209.123 78.1013 208.739 78.016C208.44 78.3573 208.077 78.912 207.651 79.68C207.267 80.4053 206.925 81.216 206.627 82.112C206.371 83.008 206.243 83.8613 206.243 84.672C206.285 85.7813 206.584 86.5707 207.139 87.04C207.736 87.4667 208.44 87.68 209.251 87.68C210.872 87.68 212.429 87.168 213.923 86.144C215.459 85.0773 216.845 83.776 218.083 82.24C219.32 80.704 220.365 79.232 221.219 77.824C221.347 77.6533 221.453 77.568 221.539 77.568C221.624 77.5253 221.688 77.504 221.731 77.504C221.859 77.504 221.965 77.568 222.051 77.696C222.179 77.824 222.2 77.9947 222.115 78.208C221.56 79.104 220.835 80.1707 219.939 81.408C219.085 82.6453 218.061 83.84 216.867 84.992C215.715 86.1013 214.413 87.0187 212.963 87.744C212.408 88.0427 211.789 88.256 211.107 88.384C210.467 88.512 209.827 88.576 209.187 88.576ZM210.531 77.376C212.536 77.376 214.349 76.864 215.971 75.84C217.635 74.7733 218.829 73.4933 219.555 72C219.768 71.6587 219.896 71.3387 219.939 71.04C220.024 70.7413 220.067 70.5067 220.067 70.336C220.067 69.6107 219.661 69.248 218.851 69.248C218.339 69.248 217.763 69.376 217.123 69.632C216.525 69.888 215.992 70.1867 215.523 70.528C214.712 71.1253 213.859 71.872 212.963 72.768C212.109 73.6213 211.341 74.4747 210.659 75.328C209.976 76.1387 209.464 76.7787 209.123 77.248C209.336 77.2907 209.571 77.3333 209.827 77.376C210.083 77.376 210.317 77.376 210.531 77.376ZM210.52 112.896C209.411 112.896 208.493 112.576 207.768 111.936C207.043 111.296 206.68 110.443 206.68 109.376C206.68 108.864 206.787 108.288 207 107.648C207.213 107.051 207.555 106.432 208.024 105.792C208.877 104.597 210.136 103.253 211.8 101.76C213.421 100.309 215.128 98.9227 216.92 97.6C218.883 96.1067 220.76 94.784 222.552 93.632C224.387 92.5227 225.923 91.6267 227.16 90.944C228.44 90.304 229.187 89.9413 229.4 89.856C229.485 89.7707 229.635 89.408 229.848 88.768C230.104 88.1707 230.381 87.488 230.68 86.72C230.979 85.952 231.235 85.248 231.448 84.608C231.704 83.9253 231.875 83.4773 231.96 83.264L232.536 81.792C231.768 82.7733 230.872 83.776 229.848 84.8C228.867 85.7813 227.8 86.6133 226.648 87.296C225.539 87.9787 224.387 88.32 223.192 88.32C221.741 88.32 220.739 87.872 220.184 86.976C219.672 86.0373 219.416 85.0133 219.416 83.904C219.416 83.3493 219.459 82.816 219.544 82.304C219.672 81.7493 219.8 81.2587 219.928 80.832C220.312 79.5947 220.952 78.2293 221.848 76.736C222.787 75.2427 223.917 73.8133 225.24 72.448C226.563 71.04 228.013 69.888 229.592 68.992C231.213 68.096 232.877 67.648 234.584 67.648C235.864 67.648 236.717 67.968 237.144 68.608C237.613 69.248 237.848 69.9733 237.848 70.784C237.848 70.9547 237.827 71.1253 237.784 71.296C237.784 71.4667 237.763 71.6587 237.72 71.872C238.189 71.1467 238.851 70.2293 239.704 69.12C240.6 67.968 241.453 67.0507 242.264 66.368C242.861 65.8987 243.459 65.664 244.056 65.664C244.525 65.664 244.909 65.792 245.208 66.048C245.549 66.2613 245.72 66.5173 245.72 66.816C245.72 67.1147 245.507 67.392 245.08 67.648C243.757 68.3307 242.52 69.0987 241.368 69.952C240.216 70.7627 239.192 71.7653 238.296 72.96C237.613 73.8987 237.016 75.0507 236.504 76.416C235.992 77.7813 235.544 79.2107 235.16 80.704C234.776 82.1547 234.413 83.5627 234.072 84.928C233.731 86.2507 233.389 87.3813 233.048 88.32C233.731 87.8933 234.669 87.168 235.864 86.144C237.059 85.12 238.296 83.8827 239.576 82.432C240.899 80.9813 242.029 79.4453 242.968 77.824C243.139 77.6107 243.267 77.4827 243.352 77.44C243.437 77.3973 243.523 77.376 243.608 77.376C243.736 77.376 243.843 77.44 243.928 77.568C244.056 77.6533 244.099 77.76 244.056 77.888C242.861 79.9787 241.496 81.8773 239.96 83.584C238.424 85.2907 236.995 86.6773 235.672 87.744C234.349 88.8107 233.389 89.472 232.792 89.728C231.896 92.288 230.701 94.9973 229.208 97.856C227.757 100.757 225.88 103.488 223.576 106.048C222.723 106.987 221.592 107.989 220.184 109.056C218.819 110.123 217.304 111.019 215.64 111.744C213.976 112.512 212.269 112.896 210.52 112.896ZM224.152 87.168C225.133 87.168 226.157 86.7413 227.224 85.888C228.333 85.0347 229.421 83.9467 230.488 82.624C231.597 81.3013 232.6 79.9147 233.496 78.464C234.392 77.0133 235.117 75.6693 235.672 74.432C236.269 73.1947 236.611 72.256 236.696 71.616C236.739 71.4027 236.76 71.1893 236.76 70.976C236.803 70.72 236.824 70.5067 236.824 70.336C236.824 68.9707 236.333 68.288 235.352 68.288C234.669 68.288 233.88 68.5867 232.984 69.184C232.088 69.7813 231.171 70.5493 230.232 71.488C229.336 72.4267 228.483 73.4507 227.672 74.56C226.904 75.6267 226.285 76.672 225.816 77.696C225.688 77.952 225.368 78.5707 224.856 79.552C224.387 80.5333 223.917 81.6 223.448 82.752C223.021 83.904 222.808 84.9067 222.808 85.76C222.808 86.6987 223.256 87.168 224.152 87.168ZM210.328 111.872C211.309 111.872 212.483 111.381 213.848 110.4C215.171 109.419 216.557 108.139 218.008 106.56C219.501 104.981 220.952 103.275 222.36 101.44C223.768 99.6053 225.048 97.8133 226.2 96.064C227.352 94.3147 228.269 92.7787 228.952 91.456C228.355 91.7547 227.437 92.2667 226.2 92.992C224.963 93.76 223.555 94.656 221.976 95.68C220.397 96.7467 218.797 97.8987 217.176 99.136C215.597 100.373 214.125 101.611 212.76 102.848C211.352 104.128 210.243 105.344 209.432 106.496C208.579 107.648 208.152 108.693 208.152 109.632C208.152 110.059 208.28 110.464 208.536 110.848C208.963 111.531 209.56 111.872 210.328 111.872ZM255.118 88.704C254.265 88.704 253.518 88.4053 252.878 87.808C252.238 87.2107 251.918 86.3573 251.918 85.248C251.918 84.7787 252.025 84.16 252.238 83.392C251.641 84.1173 250.937 84.8853 250.126 85.696C249.358 86.5067 248.505 87.1893 247.566 87.744C246.67 88.2987 245.753 88.576 244.814 88.576C244.302 88.576 243.854 88.4907 243.47 88.32C242.787 88.064 242.297 87.6587 241.998 87.104C241.742 86.5067 241.614 85.8667 241.614 85.184C241.614 83.9893 241.849 82.752 242.318 81.472C242.83 80.192 243.278 79.1893 243.662 78.464C243.619 78.5067 243.555 78.528 243.47 78.528C243.299 78.528 243.129 78.464 242.958 78.336C242.83 78.1653 242.83 77.9947 242.958 77.824C243.257 77.44 243.705 76.8 244.302 75.904C244.942 75.008 245.646 74.0267 246.414 72.96C247.182 71.8933 247.886 70.8907 248.526 69.952C249.209 69.0133 249.721 68.288 250.062 67.776C250.403 67.6907 250.894 67.5627 251.534 67.392C252.217 67.1787 252.835 67.072 253.39 67.072C254.03 67.072 254.499 67.2427 254.798 67.584C254.329 68.3093 253.667 69.2693 252.814 70.464C251.961 71.6587 251.022 72.96 249.998 74.368C249.017 75.776 248.078 77.2267 247.182 78.72C246.286 80.2133 245.539 81.6427 244.942 83.008C244.387 84.3307 244.11 85.4827 244.11 86.464C244.11 87.1893 244.494 87.552 245.262 87.552C246.158 87.5093 247.203 86.9547 248.398 85.888C249.635 84.7787 250.894 83.392 252.174 81.728C253.497 80.064 254.755 78.3573 255.95 76.608C257.87 73.7067 259.363 71.4453 260.43 69.824C261.497 68.2027 262.03 67.392 262.03 67.392C262.371 67.3493 262.841 67.2427 263.438 67.072C264.078 66.8587 264.675 66.752 265.23 66.752C265.87 66.752 266.275 66.944 266.446 67.328C266.147 67.7973 265.529 68.672 264.59 69.952C263.694 71.232 262.67 72.704 261.518 74.368C260.409 76.032 259.342 77.7173 258.318 79.424C257.977 79.9787 257.593 80.64 257.166 81.408C256.739 82.1333 256.355 82.7947 256.014 83.392C255.63 84.0747 255.374 84.6293 255.246 85.056C255.161 85.4827 255.118 85.824 255.118 86.08C255.118 86.9333 255.545 87.36 256.398 87.36C256.867 87.36 257.443 87.1893 258.126 86.848C258.809 86.464 259.449 85.952 260.046 85.312C260.857 84.544 261.667 83.6053 262.478 82.496C263.331 81.344 264.313 79.7867 265.422 77.824C265.507 77.6533 265.699 77.568 265.998 77.568C266.211 77.568 266.339 77.6533 266.382 77.824C266.425 77.952 266.403 78.08 266.318 78.208C265.507 79.5307 264.718 80.8107 263.95 82.048C263.225 83.2427 262.329 84.416 261.262 85.568C260.281 86.6347 259.235 87.424 258.126 87.936C257.059 88.448 256.057 88.704 255.118 88.704ZM269.812 88.576C268.702 88.576 267.657 88.32 266.676 87.808C265.694 87.2533 264.969 86.3787 264.5 85.184C264.201 84.416 264.052 83.5413 264.052 82.56C264.052 81.3653 264.286 80.192 264.756 79.04C265.353 77.632 266.228 76.2453 267.38 74.88C268.532 73.5147 269.812 72.2773 271.22 71.168C272.628 70.0587 274.036 69.184 275.444 68.544C276.852 67.8613 278.11 67.52 279.22 67.52C280.158 67.52 280.905 67.776 281.46 68.288C281.844 68.672 282.036 69.2267 282.036 69.952C282.036 70.8907 281.673 71.9787 280.948 73.216C280.265 74.4107 279.284 75.456 278.003 76.352C277.193 76.9067 276.233 77.376 275.124 77.76C274.057 78.1013 272.926 78.272 271.732 78.272C271.348 78.272 270.942 78.2507 270.516 78.208C270.132 78.1653 269.748 78.1013 269.364 78.016C269.065 78.3573 268.702 78.912 268.276 79.68C267.892 80.4053 267.55 81.216 267.252 82.112C266.996 83.008 266.868 83.8613 266.868 84.672C266.91 85.7813 267.209 86.5707 267.764 87.04C268.361 87.4667 269.065 87.68 269.876 87.68C271.497 87.68 273.054 87.168 274.548 86.144C276.084 85.0773 277.47 83.776 278.708 82.24C279.945 80.704 280.99 79.232 281.844 77.824C281.972 77.6533 282.078 77.568 282.164 77.568C282.249 77.5253 282.313 77.504 282.356 77.504C282.484 77.504 282.59 77.568 282.676 77.696C282.804 77.824 282.825 77.9947 282.74 78.208C282.185 79.104 281.46 80.1707 280.564 81.408C279.71 82.6453 278.686 83.84 277.492 84.992C276.34 86.1013 275.038 87.0187 273.588 87.744C273.033 88.0427 272.414 88.256 271.732 88.384C271.092 88.512 270.452 88.576 269.812 88.576ZM271.156 77.376C273.161 77.376 274.974 76.864 276.596 75.84C278.26 74.7733 279.454 73.4933 280.18 72C280.393 71.6587 280.521 71.3387 280.564 71.04C280.649 70.7413 280.692 70.5067 280.692 70.336C280.692 69.6107 280.286 69.248 279.476 69.248C278.964 69.248 278.388 69.376 277.748 69.632C277.15 69.888 276.617 70.1867 276.148 70.528C275.337 71.1253 274.484 71.872 273.588 72.768C272.734 73.6213 271.966 74.4747 271.284 75.328C270.601 76.1387 270.089 76.7787 269.748 77.248C269.961 77.2907 270.196 77.3333 270.452 77.376C270.708 77.376 270.942 77.376 271.156 77.376ZM287.785 88.64C286.932 88.64 286.164 88.384 285.481 87.872C284.841 87.36 284.521 86.6347 284.521 85.696C284.521 84.6293 284.798 83.4773 285.353 82.24C285.95 81.0027 286.59 79.8933 287.273 78.912C287.956 77.888 288.404 77.2267 288.617 76.928C289.385 75.904 290.089 74.8587 290.729 73.792C291.412 72.6827 291.753 71.7867 291.753 71.104C291.753 70.464 291.476 70.0587 290.921 69.888C290.452 69.7173 289.961 69.5467 289.449 69.376C288.937 69.1627 288.553 69.0347 288.297 68.992C288.169 69.2053 287.87 69.7173 287.401 70.528C286.932 71.296 286.377 72.192 285.737 73.216C285.14 74.1973 284.564 75.1573 284.009 76.096C283.454 77.0347 283.028 77.7387 282.729 78.208C282.473 78.5067 282.26 78.656 282.089 78.656C281.918 78.656 281.79 78.5707 281.705 78.4C281.662 78.2293 281.705 78.0373 281.833 77.824C283.113 75.8187 284.244 73.9413 285.225 72.192C286.206 70.4427 286.846 69.3333 287.145 68.864C286.718 68.5653 286.377 68.0533 286.121 67.328C285.865 66.6027 285.737 65.856 285.737 65.088C285.737 64.2347 285.908 63.4667 286.249 62.784C286.59 62.1013 287.166 61.76 287.977 61.76C288.532 61.76 288.916 62.0373 289.129 62.592C289.342 63.104 289.449 63.7013 289.449 64.384C289.449 64.9813 289.385 65.5573 289.257 66.112C289.129 66.6667 289.022 67.0507 288.937 67.264L288.489 68.288C289.001 68.3307 289.769 68.416 290.793 68.544C291.817 68.672 292.884 68.8213 293.993 68.992C294.633 69.0773 295.145 69.312 295.529 69.696C295.956 70.08 296.169 70.592 296.169 71.232C296.169 71.872 295.956 72.64 295.529 73.536C295.102 74.432 294.377 75.456 293.353 76.608C292.841 77.2053 292.222 77.9947 291.497 78.976C290.772 79.9573 290.089 80.9173 289.449 81.856C288.809 82.752 288.34 83.456 288.041 83.968C287.486 84.864 287.209 85.6747 287.209 86.4C287.209 87.2107 287.657 87.616 288.553 87.616C289.534 87.616 290.58 87.2533 291.689 86.528C292.798 85.76 293.886 84.8213 294.953 83.712C296.02 82.6027 296.958 81.5147 297.769 80.448C298.622 79.3387 299.241 78.464 299.625 77.824C299.796 77.5253 300.03 77.376 300.329 77.376C300.542 77.376 300.649 77.4827 300.649 77.696C300.649 77.9093 300.606 78.08 300.521 78.208C300.094 78.848 299.39 79.808 298.409 81.088C297.47 82.368 296.34 83.6693 295.017 84.992C293.694 86.272 292.222 87.2747 290.601 88C290.089 88.2133 289.577 88.3627 289.065 88.448C288.553 88.576 288.126 88.64 287.785 88.64Z" fill="#F1F5F9"/>
</svg>
