<svg width="151" height="57" viewBox="0 0 151 57" fill="none" xmlns="http://www.w3.org/2000/svg">
<path d="M6.964 30.08C5.62 30.08 4.51067 29.8453 3.636 29.376C2.76133 28.9067 2.11067 28.2987 1.684 27.552C1.25733 26.8053 1.044 26.0373 1.044 25.248C1.044 24.608 1.15067 24.032 1.364 23.52C1.79067 22.5173 2.55867 21.6427 3.668 20.896C4.77733 20.1493 6.132 19.776 7.732 19.776C7.924 19.776 8.116 19.7867 8.308 19.808C8.52133 19.8293 8.71333 19.8613 8.884 19.904C9.11867 19.8827 9.34267 19.808 9.556 19.68C9.76933 19.5307 9.92933 19.4027 10.036 19.296C10.1427 19.168 10.228 19.04 10.292 18.912C10.356 18.7627 10.388 18.6347 10.388 18.528C10.388 18.3787 10.3347 18.272 10.228 18.208C10.164 18.1653 10.132 18.1227 10.132 18.08C10.132 17.9307 10.2707 17.8987 10.548 17.984C10.9533 18.112 11.156 18.368 11.156 18.752C11.156 19.1147 10.964 19.424 10.58 19.68C10.4307 19.808 10.2493 19.904 10.036 19.968C9.844 20.0107 9.64133 20.032 9.428 20.032C10.1533 20.2453 10.8147 20.6187 11.412 21.152L11.572 21.088C11.8493 21.0027 12.1587 21.056 12.5 21.248C12.8413 21.44 13.0867 21.7493 13.236 22.176C13.3427 22.496 13.396 22.8373 13.396 23.2C13.396 23.584 13.332 23.9573 13.204 24.32C13.0973 24.6827 12.916 24.9387 12.66 25.088C12.404 25.2373 12.244 25.248 12.18 25.12C12.3293 24.992 12.404 24.8427 12.404 24.672C12.404 24.5013 12.34 24.32 12.212 24.128C12.1053 23.9573 11.988 23.8293 11.86 23.744C11.732 23.6373 11.5933 23.52 11.444 23.392C11.2947 23.2427 11.156 23.0293 11.028 22.752C10.9213 22.5387 10.868 22.336 10.868 22.144C10.868 21.8667 10.9533 21.6213 11.124 21.408C10.036 20.5333 8.77733 20.16 7.348 20.288C6.196 20.3947 5.22533 20.704 4.436 21.216C3.64667 21.7067 3.04933 22.3147 2.644 23.04C2.23867 23.7653 2.036 24.5227 2.036 25.312C2.036 26.3573 2.37733 27.2853 3.06 28.096L2.996 28C2.84667 27.7013 2.772 27.3493 2.772 26.944C2.772 26.688 2.804 26.4533 2.868 26.24C3.14533 25.536 3.54 25.184 4.052 25.184C4.39333 25.184 4.67067 25.344 4.884 25.664C4.96933 25.7707 5.012 25.888 5.012 26.016C5.012 26.208 4.92667 26.24 4.756 26.112C4.60667 26.0053 4.41467 26.016 4.18 26.144C3.94533 26.2933 3.74267 26.496 3.572 26.752C3.48667 26.8587 3.412 27.0187 3.348 27.232C3.284 27.4453 3.252 27.6693 3.252 27.904C3.252 28.032 3.27333 28.1813 3.316 28.352C3.72133 28.7573 4.212 29.0773 4.788 29.312C5.364 29.5467 6.036 29.664 6.804 29.664C7.91333 29.664 9.012 29.3867 10.1 28.832C11.188 28.2987 12.244 27.584 13.268 26.688C14.292 25.792 15.2733 24.7893 16.212 23.68C17.1507 22.5707 18.036 21.44 18.868 20.288C19.7 19.1147 20.4573 18.0053 21.14 16.96C21.844 15.9147 22.452 15.0187 22.964 14.272C24.0307 12.6933 25.14 11.1787 26.292 9.728C27.444 8.27733 28.6707 7.104 29.972 6.208C28.4787 5.71733 26.8893 5.19467 25.204 4.64C23.54 4.08533 21.8547 3.68 20.148 3.424C19.636 3.31733 19.1453 3.25333 18.676 3.232C18.6973 3.25333 18.676 3.25333 18.612 3.232C18.3347 3.18933 18.0893 3.25333 17.876 3.424C17.6627 3.57333 17.5133 3.712 17.428 3.84C17.2787 4.096 17.204 4.33067 17.204 4.544C17.204 4.736 17.268 4.864 17.396 4.928C17.5027 4.97067 17.556 5.024 17.556 5.088C17.556 5.17333 17.4813 5.216 17.332 5.216C17.1613 5.216 16.9587 5.152 16.724 5.024C16.5107 4.896 16.404 4.69333 16.404 4.416C16.404 4.13867 16.5107 3.88267 16.724 3.648C16.9587 3.41333 17.2467 3.25333 17.588 3.168C15.86 3.12533 14.3667 3.328 13.108 3.776C11.8493 4.224 10.8147 4.82133 10.004 5.568C9.19333 6.29333 8.58533 7.104 8.18 8C8.26533 8 8.308 8.05333 8.308 8.16C8.28667 8.608 8.34 8.97067 8.468 9.248C8.596 9.52533 8.76667 9.78133 8.98 10.016C9.108 9.78133 9.28933 9.61067 9.524 9.504C9.75867 9.39733 10.004 9.344 10.26 9.344C10.4733 9.344 10.6547 9.376 10.804 9.44C11.1667 9.568 11.444 9.71733 11.636 9.888C11.8493 10.0373 12.0307 10.1973 12.18 10.368C12.2867 10.496 12.4467 10.6133 12.66 10.72C12.8733 10.8267 13.076 10.88 13.268 10.88C13.5667 10.88 13.7907 10.7627 13.94 10.528C14.004 10.592 14.036 10.688 14.036 10.816C14.036 11.136 13.876 11.4133 13.556 11.648C13.2573 11.8827 12.884 12.064 12.436 12.192C12.0093 12.32 11.5827 12.384 11.156 12.384C10.388 12.384 9.78 12.16 9.332 11.712C8.90533 11.2427 8.73467 10.8053 8.82 10.4L8.852 10.336C8.57467 10.1013 8.372 9.856 8.244 9.6C8.116 9.32267 7.99867 9.024 7.892 8.704C7.65733 9.45067 7.54 10.1547 7.54 10.816C7.54 11.6907 7.72133 12.5227 8.084 13.312C8.44667 14.08 8.98 14.6987 9.684 15.168C10.388 15.6373 11.2413 15.872 12.244 15.872C13.2467 15.872 14.2173 15.616 15.156 15.104C16.0947 14.5707 16.852 13.856 17.428 12.96C18.004 12.0427 18.2493 11.008 18.164 9.856C18.1427 9.49333 18.0147 9.12 17.78 8.736C17.5667 8.352 17.2467 8.16 16.82 8.16C16.7133 8.16 16.596 8.18133 16.468 8.224C16.34 8.26667 16.2547 8.34133 16.212 8.448C16.1907 8.512 16.148 8.544 16.084 8.544C15.9773 8.544 15.924 8.448 15.924 8.256C15.924 7.95733 16.0307 7.712 16.244 7.52C16.4787 7.328 16.7347 7.232 17.012 7.232C17.3107 7.232 17.5987 7.38133 17.876 7.68C18.1747 7.97867 18.3347 8.50133 18.356 9.248C18.42 9.056 18.5053 8.864 18.612 8.672C18.8467 8.352 19.124 8.192 19.444 8.192C19.7853 8.192 20.0093 8.352 20.116 8.672C20.1587 8.8 20.1587 8.896 20.116 8.96C20.0733 9.024 20.0093 9.01333 19.924 8.928C19.86 8.864 19.7853 8.832 19.7 8.832C19.5293 8.832 19.3053 8.928 19.028 9.12C18.964 9.184 18.8893 9.28 18.804 9.408C18.7187 9.536 18.6547 9.68533 18.612 9.856C18.6547 11.1573 18.4093 12.2773 17.876 13.216C17.3427 14.1547 16.6493 14.8907 15.796 15.424C15.9027 15.4027 15.9987 15.392 16.084 15.392C16.1693 15.3707 16.2547 15.36 16.34 15.36C16.7667 15.36 17.108 15.4773 17.364 15.712C17.6413 15.9253 17.78 16.16 17.78 16.416C17.78 16.6933 17.6413 16.928 17.364 17.12C17.2147 17.2053 17.0973 17.2373 17.012 17.216C16.9267 17.1733 16.9267 17.0987 17.012 16.992C17.1187 16.864 17.108 16.704 16.98 16.512C16.8733 16.32 16.7133 16.1493 16.5 16C16.2653 15.808 15.9453 15.712 15.54 15.712C15.4973 15.712 15.444 15.712 15.38 15.712C15.316 15.712 15.2627 15.7227 15.22 15.744C14.3027 16.1707 13.332 16.384 12.308 16.384C11.0067 16.384 9.89733 16.128 8.98 15.616C8.084 15.0827 7.38 14.4213 6.868 13.632C6.868 13.76 6.84667 13.9093 6.804 14.08C6.676 14.4853 6.452 14.8373 6.132 15.136C6.23867 15.3493 6.292 15.5733 6.292 15.808C6.292 16.3413 6.068 16.832 5.62 17.28C5.364 17.5573 4.99067 17.8027 4.5 18.016C4.00933 18.208 3.54 18.304 3.092 18.304C2.72933 18.304 2.43067 18.2187 2.196 18.048C2.04667 17.9413 1.96133 17.8453 1.94 17.76C1.91867 17.6533 1.91867 17.5893 1.94 17.568C2.004 17.6107 2.1 17.632 2.228 17.632C2.484 17.632 2.708 17.5147 2.9 17.28C3.11333 17.024 3.24133 16.7893 3.284 16.576C3.32667 16.3627 3.39067 16.1387 3.476 15.904C3.56133 15.6693 3.71067 15.424 3.924 15.168C4.244 14.784 4.64933 14.592 5.14 14.592C5.48133 14.592 5.75867 14.6987 5.972 14.912C6.18533 14.656 6.34533 14.3147 6.452 13.888C6.47333 13.7813 6.484 13.6747 6.484 13.568C6.50533 13.4613 6.516 13.3653 6.516 13.28C6.516 13.088 6.50533 12.9493 6.484 12.864C6.164 12.096 6.004 11.2747 6.004 10.4C6.004 9.65333 6.12133 8.90667 6.356 8.16C6.612 7.392 6.996 6.67733 7.508 6.016C7.42267 6.03733 7.316 6.05867 7.188 6.08C7.08133 6.08 6.97467 6.08 6.868 6.08C6.59067 6.08 6.31333 6.02667 6.036 5.92C5.78 5.81333 5.54533 5.65333 5.332 5.44C5.268 5.46133 5.172 5.472 5.044 5.472C4.74533 5.472 4.42533 5.35467 4.084 5.12C3.764 4.88533 3.51867 4.56533 3.348 4.16C3.22 3.84 3.156 3.456 3.156 3.008C3.156 2.51733 3.23067 2.048 3.38 1.6C3.52933 1.152 3.75333 0.853333 4.052 0.703999C4.22267 0.597332 4.35067 0.554665 4.436 0.575998C4.52133 0.597333 4.58533 0.618666 4.628 0.639999C4.45733 0.789332 4.372 0.981332 4.372 1.216C4.372 1.42933 4.436 1.64267 4.564 1.856C4.692 2.048 4.83067 2.19733 4.98 2.304C5.15067 2.432 5.32133 2.58133 5.492 2.752C5.684 2.92267 5.85467 3.15733 6.004 3.456C6.11067 3.712 6.164 3.94667 6.164 4.16C6.164 4.672 5.98267 5.056 5.62 5.312C5.91867 5.568 6.31333 5.696 6.804 5.696H6.996C7.29467 5.696 7.604 5.64267 7.924 5.536C8.756 4.59733 9.86533 3.82933 11.252 3.232C12.6387 2.63467 14.324 2.336 16.308 2.336C16.7987 2.336 17.3 2.35733 17.812 2.4C18.324 2.44267 18.8467 2.50667 19.38 2.592C20.5107 2.76267 21.7373 3.04 23.06 3.424C24.404 3.808 25.7267 4.21333 27.028 4.64C28.3293 5.06667 29.492 5.46133 30.516 5.824C31.1347 5.46133 31.764 5.17333 32.404 4.96C33.044 4.74667 33.7053 4.64 34.388 4.64C34.9853 4.64 35.4333 4.768 35.732 5.024C36.052 5.28 36.212 5.568 36.212 5.888C36.212 6.22933 36.02 6.53867 35.636 6.816C35.2733 7.09333 34.6973 7.22133 33.908 7.2C33.332 8.05333 32.8093 8.992 32.34 10.016C31.8707 11.04 31.444 12.064 31.06 13.088C30.6973 14.112 30.388 15.0613 30.132 15.936C29.812 17.024 29.46 18.0587 29.076 19.04C28.7133 20.0213 28.1587 20.9173 27.412 21.728C28.7347 20.7253 29.94 19.5733 31.028 18.272C32.1373 16.9707 33.14 15.6373 34.036 14.272C34.6333 13.3547 35.3587 12.32 36.212 11.168C37.0653 9.99467 38.004 8.82133 39.028 7.648C40.052 6.45333 41.108 5.344 42.196 4.32C43.3053 3.27467 44.4147 2.42133 45.524 1.76C46.6333 1.07733 47.6893 0.693332 48.692 0.608C48.82 0.586665 48.948 0.575998 49.076 0.575998C49.204 0.575998 49.3213 0.575998 49.428 0.575998C50.6653 0.575998 51.5507 0.842665 52.084 1.376C52.6173 1.888 52.884 2.44267 52.884 3.04C52.884 3.424 52.7773 3.78667 52.564 4.128C52.3507 4.448 52.0627 4.672 51.7 4.8L51.636 4.48C52.148 4.18133 52.404 3.75467 52.404 3.2C52.404 2.77333 52.212 2.37867 51.828 2.016C51.4653 1.65333 50.9107 1.472 50.164 1.472C49.78 1.472 49.3427 1.536 48.852 1.664C48.084 1.87733 47.2307 2.31467 46.292 2.976C45.3533 3.63733 44.372 4.42667 43.348 5.344C42.3453 6.26133 41.3533 7.24267 40.372 8.288C39.412 9.312 38.516 10.304 37.684 11.264C36.852 12.224 36.1373 13.0667 35.54 13.792C34.964 14.5173 34.5587 15.04 34.324 15.36C33.94 15.8933 33.4493 16.5333 32.852 17.28C32.276 18.0267 31.6147 18.7947 30.868 19.584C30.1427 20.352 29.3747 21.0773 28.564 21.76C27.7533 22.4213 26.932 22.9653 26.1 23.392C25.268 23.7973 24.4573 24 23.668 24C23.2413 24 23.028 23.9573 23.028 23.872C23.028 23.7653 23.1667 23.648 23.444 23.52C23.7213 23.392 23.9027 23.2853 23.988 23.2C24.0947 23.1147 24.276 22.8587 24.532 22.432C24.788 22.0053 25.0867 21.4933 25.428 20.896C25.7907 20.2773 26.1533 19.6373 26.516 18.976C26.9 18.3147 27.2413 17.7067 27.54 17.152C27.8387 16.576 28.0627 16.1173 28.212 15.776C28.34 15.52 28.5747 15.0613 28.916 14.4C29.2573 13.7173 29.6733 12.9493 30.164 12.096C30.6547 11.2213 31.1667 10.3467 31.7 9.472C32.2547 8.576 32.7987 7.79733 33.332 7.136C33.1827 7.11467 33.012 7.08267 32.82 7.04C32.628 6.99733 32.4253 6.95467 32.212 6.912L31.284 6.624C30.6013 7.2 29.9293 7.88267 29.268 8.672C28.6067 9.46133 27.988 10.272 27.412 11.104C26.8573 11.9147 26.356 12.6827 25.908 13.408C25.46 14.1333 25.0973 14.72 24.82 15.168C24.18 16.256 23.3907 17.4613 22.452 18.784C21.5133 20.1067 20.4573 21.4293 19.284 22.752C18.1107 24.0747 16.852 25.2907 15.508 26.4C14.1853 27.5093 12.7987 28.3947 11.348 29.056C9.89733 29.7387 8.436 30.08 6.964 30.08ZM34.516 6.688C34.8787 6.66667 35.1667 6.57067 35.38 6.4C35.5933 6.22933 35.7 6.03733 35.7 5.824C35.7 5.632 35.5933 5.46133 35.38 5.312C35.188 5.16267 34.8573 5.088 34.388 5.088C33.9827 5.10933 33.556 5.22667 33.108 5.44C32.66 5.632 32.212 5.89867 31.764 6.24C32.1267 6.368 32.4573 6.464 32.756 6.528C33.0547 6.592 33.3853 6.63467 33.748 6.656C33.8973 6.48533 34.036 6.336 34.164 6.208C34.3133 6.05867 34.4627 5.94133 34.612 5.856L34.804 5.952C34.7187 6.05867 34.6333 6.176 34.548 6.304C34.4627 6.432 34.3667 6.56 34.26 6.688H34.516ZM37.044 26.656C36.596 26.656 36.1907 26.5173 35.828 26.24C35.5507 26.048 35.348 25.76 35.22 25.376C35.092 24.992 35.028 24.5653 35.028 24.096C35.028 23.712 35.06 23.3067 35.124 22.88C35.2093 22.4533 35.316 22.016 35.444 21.568C35.8067 20.3307 36.3613 18.9653 37.108 17.472C37.876 15.9787 38.7507 14.464 39.732 12.928C40.7133 11.392 41.748 9.952 42.836 8.608C43.9453 7.24267 45.0227 6.08 46.068 5.12L46.26 5.344C45.556 6.19733 44.8413 7.2 44.116 8.352C43.412 9.48267 42.7187 10.688 42.036 11.968C41.3747 13.248 40.7453 14.5387 40.148 15.84C39.572 17.12 39.0707 18.3467 38.644 19.52C38.6227 19.584 38.5373 19.808 38.388 20.192C38.26 20.576 38.1107 21.056 37.94 21.632C37.7907 22.1867 37.652 22.752 37.524 23.328C37.396 23.904 37.332 24.4053 37.332 24.832C37.332 25.1307 37.3747 25.376 37.46 25.568C37.5453 25.76 37.684 25.856 37.876 25.856C38.068 25.856 38.324 25.76 38.644 25.568C38.7933 25.4613 38.932 25.3547 39.06 25.248C39.188 25.1627 39.316 25.056 39.444 24.928L39.7 25.216C39.4013 25.5573 39.0067 25.8773 38.516 26.176C38.0467 26.496 37.556 26.656 37.044 26.656ZM44.8745 24.288C44.3198 24.288 43.7972 24.16 43.3065 23.904C42.8158 23.6267 42.4532 23.1893 42.2185 22.592C42.0692 22.208 41.9945 21.7707 41.9945 21.28C41.9945 20.6827 42.1118 20.096 42.3465 19.52C42.6452 18.816 43.0825 18.1227 43.6585 17.44C44.2345 16.7573 44.8745 16.1387 45.5785 15.584C46.2825 15.0293 46.9865 14.592 47.6905 14.272C48.3945 13.9307 49.0238 13.76 49.5785 13.76C50.0478 13.76 50.4212 13.888 50.6985 14.144C50.8905 14.336 50.9865 14.6133 50.9865 14.976C50.9865 15.4453 50.8052 15.9893 50.4425 16.608C50.1012 17.2053 49.6105 17.728 48.9705 18.176C48.5652 18.4533 48.0852 18.688 47.5305 18.88C46.9972 19.0507 46.4318 19.136 45.8345 19.136C45.6425 19.136 45.4398 19.1253 45.2265 19.104C45.0345 19.0827 44.8425 19.0507 44.6505 19.008C44.5012 19.1787 44.3198 19.456 44.1065 19.84C43.9145 20.2027 43.7438 20.608 43.5945 21.056C43.4665 21.504 43.4025 21.9307 43.4025 22.336C43.4238 22.8907 43.5732 23.2853 43.8505 23.52C44.1492 23.7333 44.5012 23.84 44.9065 23.84C45.7172 23.84 46.4958 23.584 47.2425 23.072C48.0105 22.5387 48.7038 21.888 49.3225 21.12C49.9412 20.352 50.4638 19.616 50.8905 18.912C50.9545 18.8267 51.0078 18.784 51.0505 18.784C51.0932 18.7627 51.1252 18.752 51.1465 18.752C51.2105 18.752 51.2638 18.784 51.3065 18.848C51.3705 18.912 51.3812 18.9973 51.3385 19.104C51.0612 19.552 50.6985 20.0853 50.2505 20.704C49.8238 21.3227 49.3118 21.92 48.7145 22.496C48.1385 23.0507 47.4878 23.5093 46.7625 23.872C46.4852 24.0213 46.1758 24.128 45.8345 24.192C45.5145 24.256 45.1945 24.288 44.8745 24.288ZM45.5465 18.688C46.5492 18.688 47.4558 18.432 48.2665 17.92C49.0985 17.3867 49.6958 16.7467 50.0585 16C50.1652 15.8293 50.2292 15.6693 50.2505 15.52C50.2932 15.3707 50.3145 15.2533 50.3145 15.168C50.3145 14.8053 50.1118 14.624 49.7065 14.624C49.4505 14.624 49.1625 14.688 48.8425 14.816C48.5438 14.944 48.2772 15.0933 48.0425 15.264C47.6372 15.5627 47.2105 15.936 46.7625 16.384C46.3358 16.8107 45.9518 17.2373 45.6105 17.664C45.2692 18.0693 45.0132 18.3893 44.8425 18.624C44.9492 18.6453 45.0665 18.6667 45.1945 18.688C45.3225 18.688 45.4398 18.688 45.5465 18.688ZM52.6133 24.288C52.5279 24.288 52.4319 24.2773 52.3253 24.256C52.2186 24.256 52.1119 24.2453 52.0052 24.224C51.3866 24.0747 50.9386 23.7973 50.6613 23.392C50.4053 22.9653 50.2773 22.4533 50.2773 21.856C50.2773 21.3867 50.3413 20.8853 50.4693 20.352C50.6186 19.7973 50.7999 19.2213 51.0133 18.624C51.3759 17.6853 51.8239 16.6507 52.3573 15.52C52.9119 14.368 53.5306 13.1947 54.2133 12C54.9173 10.784 55.6533 9.61067 56.4213 8.48C57.2106 7.34933 58.0213 6.32533 58.8533 5.408C59.3439 4.85333 59.8346 4.352 60.3253 3.904C60.8373 3.456 61.3386 3.09333 61.8293 2.816C62.6613 2.304 63.4293 2.048 64.1333 2.048C64.5599 2.048 64.8906 2.15466 65.1253 2.368C65.3813 2.56 65.5093 2.86933 65.5093 3.296C65.5093 3.57333 65.4453 3.89333 65.3173 4.256C65.2106 4.59733 65.0186 4.992 64.7413 5.44C64.2079 6.336 63.5146 7.27467 62.6613 8.256C61.8293 9.23733 60.9226 10.1973 59.9413 11.136C58.9599 12.0533 57.9679 12.896 56.9653 13.664C55.9839 14.432 55.0559 15.0613 54.1813 15.552C53.7546 16.32 53.3493 17.1413 52.9653 18.016C52.5813 18.8693 52.2719 19.6907 52.0373 20.48C51.8026 21.248 51.6853 21.9093 51.6853 22.464C51.6853 22.8907 51.7706 23.232 51.9413 23.488C52.1119 23.744 52.3786 23.872 52.7413 23.872C53.2106 23.872 53.7546 23.6587 54.3733 23.232C54.9919 22.8053 55.6319 22.2293 56.2933 21.504C56.9759 20.7573 57.6159 19.8933 58.2133 18.912C58.3199 18.784 58.4266 18.72 58.5333 18.72C58.5973 18.72 58.6399 18.7627 58.6613 18.848C58.7039 18.9333 58.7039 19.0187 58.6613 19.104C57.6159 20.704 56.5919 21.9733 55.5893 22.912C54.6079 23.8293 53.6159 24.288 52.6133 24.288ZM54.4053 14.944C55.0879 14.56 55.8773 13.9733 56.7733 13.184C57.6906 12.3947 58.6186 11.52 59.5573 10.56C60.4959 9.57867 61.3599 8.608 62.1493 7.648C62.9599 6.688 63.5893 5.84533 64.0373 5.12C64.2719 4.736 64.4426 4.40533 64.5493 4.128C64.6559 3.85067 64.7093 3.616 64.7093 3.424C64.7093 3.04 64.5386 2.848 64.1973 2.848C63.7493 2.848 63.1519 3.15733 62.4053 3.776C61.8719 4.224 61.3706 4.72533 60.9013 5.28C60.4319 5.81333 60.1013 6.208 59.9093 6.464C58.9279 7.76533 57.9786 9.184 57.0613 10.72C56.1439 12.2347 55.2586 13.6427 54.4053 14.944ZM64.2778 12.352C63.9791 12.352 63.7444 12.256 63.5738 12.064C63.4244 11.872 63.3498 11.648 63.3498 11.392C63.3498 10.9653 63.4991 10.624 63.7978 10.368C64.0964 10.112 64.4164 9.984 64.7578 9.984C65.0564 9.984 65.2911 10.08 65.4618 10.272C65.6324 10.4427 65.7178 10.6667 65.7178 10.944C65.7178 11.3493 65.5684 11.6907 65.2698 11.968C64.9711 12.224 64.6404 12.352 64.2778 12.352ZM58.9658 24.384C58.3898 24.384 57.8991 24.2133 57.4938 23.872C57.1098 23.5093 56.9178 22.9973 56.9178 22.336C56.9178 21.9947 56.9818 21.6 57.1098 21.152C57.2591 20.6827 57.4298 20.256 57.6218 19.872C57.8351 19.4667 58.0164 19.136 58.1658 18.88C58.3364 18.624 58.4218 18.496 58.4218 18.496L61.5578 13.856C61.6858 13.7493 61.8458 13.6853 62.0378 13.664C62.2298 13.6213 62.4324 13.6 62.6458 13.6C62.9444 13.6 63.2004 13.632 63.4138 13.696C63.6271 13.7387 63.7124 13.8133 63.6698 13.92L60.5018 18.624C60.4378 18.7093 60.2244 19.008 59.8618 19.52C59.5204 20.0107 59.1898 20.5547 58.8698 21.152C58.4644 21.8987 58.2618 22.5387 58.2618 23.072C58.2618 23.648 58.5284 23.936 59.0618 23.936C59.2324 23.936 59.4351 23.904 59.6698 23.84C59.9258 23.7547 60.2138 23.6267 60.5338 23.456C61.8778 22.7093 63.2538 21.1947 64.6618 18.912C64.7258 18.8053 64.7791 18.752 64.8218 18.752C64.8858 18.7307 64.9284 18.72 64.9498 18.72C65.0564 18.72 65.1204 18.7627 65.1418 18.848C65.1844 18.912 65.1738 18.9973 65.1098 19.104C64.3418 20.2773 63.5844 21.2907 62.8378 22.144C62.1124 22.9973 61.3444 23.616 60.5338 24C60.0004 24.256 59.4778 24.384 58.9658 24.384ZM73.7225 18.72C73.7865 18.72 73.8398 18.752 73.8825 18.816C73.9252 18.88 73.9252 18.976 73.8825 19.104C72.8798 20.704 71.7385 21.8453 70.4585 22.528C69.1785 23.1893 67.9092 23.6373 66.6505 23.872C66.1385 24 65.6052 24.064 65.0505 24.064C64.3252 24.064 63.6425 23.9253 63.0025 23.648C62.3625 23.3707 61.9038 22.912 61.6265 22.272C61.4985 21.952 61.4345 21.632 61.4345 21.312C61.4345 20.8427 61.5518 20.4373 61.7865 20.096C62.0425 19.7333 62.3092 19.4773 62.5865 19.328C62.7572 19.2213 62.9385 19.1573 63.1305 19.136C63.3438 19.0933 63.5572 19.072 63.7705 19.072C64.0478 19.072 64.2932 19.104 64.5065 19.168C64.5705 19.0613 64.7625 18.752 65.0825 18.24C65.4025 17.7067 65.7972 17.088 66.2665 16.384C66.7358 15.6587 67.2265 14.976 67.7385 14.336C68.2932 13.6533 68.8265 13.088 69.3385 12.64C69.8505 12.192 70.2238 11.9467 70.4585 11.904C70.5225 11.8827 70.5865 11.872 70.6505 11.872C70.7145 11.872 70.7678 11.872 70.8105 11.872C71.0452 11.872 71.2158 11.9253 71.3225 12.032C71.4505 12.1387 71.5145 12.2667 71.5145 12.416C71.5145 12.5653 71.4292 12.7147 71.2585 12.864C71.1092 13.0133 70.8852 13.088 70.5865 13.088C70.2452 13.088 69.9038 13.184 69.5625 13.376C69.2212 13.5467 69.0185 13.7493 68.9545 13.984C68.8905 14.176 68.8585 14.3893 68.8585 14.624C68.8585 15.008 68.9225 15.392 69.0505 15.776C69.1998 16.16 69.3385 16.544 69.4665 16.928C69.5945 17.312 69.7118 17.7067 69.8185 18.112C69.9465 18.5173 70.0105 18.9547 70.0105 19.424C70.0105 19.8507 69.9465 20.288 69.8185 20.736C69.5838 21.632 69.1465 22.3573 68.5065 22.912C69.2745 22.656 70.0958 22.2293 70.9705 21.632C71.8452 21.0347 72.6665 20.128 73.4345 18.912C73.4985 18.8053 73.5518 18.752 73.5945 18.752C73.6585 18.7307 73.7012 18.72 73.7225 18.72ZM64.6665 23.648C64.9438 23.648 65.2318 23.6053 65.5305 23.52C65.8292 23.4347 66.1172 23.296 66.3945 23.104C66.7785 22.8693 67.0985 22.496 67.3545 21.984C67.6105 21.472 67.8132 20.9173 67.9625 20.32C68.1332 19.7013 68.2505 19.1147 68.3145 18.56C68.3998 18.0053 68.4425 17.568 68.4425 17.248C68.4425 16.8 68.3998 16.352 68.3145 15.904C68.2505 15.456 68.2292 15.0187 68.2505 14.592C67.7812 15.232 67.2478 15.9467 66.6505 16.736C66.0745 17.5253 65.5092 18.4 64.9545 19.36C65.2105 19.5093 65.4238 19.6907 65.5945 19.904C65.7865 20.096 65.9145 20.4053 65.9785 20.832C65.9998 21.0027 65.9465 21.1947 65.8185 21.408C65.7118 21.6 65.4985 21.696 65.1785 21.696C64.9652 21.696 64.8585 21.632 64.8585 21.504C64.8585 21.3973 64.9225 21.3013 65.0505 21.216C65.2638 21.0453 65.3705 20.8533 65.3705 20.64C65.3705 20.512 65.3385 20.384 65.2745 20.256C65.1252 19.9787 64.9118 19.776 64.6345 19.648C64.3785 19.52 64.1012 19.456 63.8025 19.456C63.3758 19.456 63.0132 19.584 62.7145 19.84C62.4585 20.0533 62.2772 20.288 62.1705 20.544C62.0638 20.7787 62.0105 21.024 62.0105 21.28C62.0105 21.6853 62.1172 22.0693 62.3305 22.432C62.5438 22.7733 62.7998 23.0293 63.0985 23.2C63.5678 23.4987 64.0905 23.648 64.6665 23.648ZM82.5038 18.72C82.5678 18.72 82.6211 18.752 82.6638 18.816C82.7064 18.88 82.7064 18.976 82.6638 19.104C81.6611 20.704 80.5198 21.8453 79.2398 22.528C77.9598 23.1893 76.6904 23.6373 75.4318 23.872C74.9198 24 74.3864 24.064 73.8318 24.064C73.1064 24.064 72.4238 23.9253 71.7838 23.648C71.1438 23.3707 70.6851 22.912 70.4078 22.272C70.2797 21.952 70.2157 21.632 70.2157 21.312C70.2157 20.8427 70.3331 20.4373 70.5678 20.096C70.8238 19.7333 71.0904 19.4773 71.3678 19.328C71.5384 19.2213 71.7198 19.1573 71.9118 19.136C72.1251 19.0933 72.3384 19.072 72.5518 19.072C72.8291 19.072 73.0744 19.104 73.2878 19.168C73.3518 19.0613 73.5438 18.752 73.8638 18.24C74.1838 17.7067 74.5784 17.088 75.0477 16.384C75.5171 15.6587 76.0078 14.976 76.5198 14.336C77.0744 13.6533 77.6078 13.088 78.1198 12.64C78.6318 12.192 79.0051 11.9467 79.2398 11.904C79.3038 11.8827 79.3678 11.872 79.4318 11.872C79.4958 11.872 79.5491 11.872 79.5918 11.872C79.8264 11.872 79.9971 11.9253 80.1038 12.032C80.2318 12.1387 80.2958 12.2667 80.2958 12.416C80.2958 12.5653 80.2104 12.7147 80.0398 12.864C79.8904 13.0133 79.6664 13.088 79.3678 13.088C79.0264 13.088 78.6851 13.184 78.3438 13.376C78.0024 13.5467 77.7998 13.7493 77.7358 13.984C77.6718 14.176 77.6398 14.3893 77.6398 14.624C77.6398 15.008 77.7038 15.392 77.8318 15.776C77.9811 16.16 78.1198 16.544 78.2478 16.928C78.3758 17.312 78.4931 17.7067 78.5998 18.112C78.7278 18.5173 78.7917 18.9547 78.7917 19.424C78.7917 19.8507 78.7278 20.288 78.5998 20.736C78.3651 21.632 77.9278 22.3573 77.2878 22.912C78.0558 22.656 78.8771 22.2293 79.7517 21.632C80.6264 21.0347 81.4478 20.128 82.2158 18.912C82.2798 18.8053 82.3331 18.752 82.3758 18.752C82.4398 18.7307 82.4824 18.72 82.5038 18.72ZM73.4478 23.648C73.7251 23.648 74.0131 23.6053 74.3118 23.52C74.6104 23.4347 74.8984 23.296 75.1758 23.104C75.5598 22.8693 75.8798 22.496 76.1358 21.984C76.3918 21.472 76.5944 20.9173 76.7438 20.32C76.9144 19.7013 77.0318 19.1147 77.0958 18.56C77.1811 18.0053 77.2238 17.568 77.2238 17.248C77.2238 16.8 77.1811 16.352 77.0958 15.904C77.0318 15.456 77.0104 15.0187 77.0318 14.592C76.5624 15.232 76.0291 15.9467 75.4318 16.736C74.8558 17.5253 74.2904 18.4 73.7358 19.36C73.9918 19.5093 74.2051 19.6907 74.3758 19.904C74.5678 20.096 74.6958 20.4053 74.7598 20.832C74.7811 21.0027 74.7278 21.1947 74.5998 21.408C74.4931 21.6 74.2798 21.696 73.9598 21.696C73.7464 21.696 73.6398 21.632 73.6398 21.504C73.6398 21.3973 73.7038 21.3013 73.8318 21.216C74.0451 21.0453 74.1518 20.8533 74.1518 20.64C74.1518 20.512 74.1198 20.384 74.0558 20.256C73.9064 19.9787 73.6931 19.776 73.4158 19.648C73.1598 19.52 72.8824 19.456 72.5838 19.456C72.1571 19.456 71.7944 19.584 71.4958 19.84C71.2398 20.0533 71.0584 20.288 70.9518 20.544C70.8451 20.7787 70.7918 21.024 70.7918 21.28C70.7918 21.6853 70.8984 22.0693 71.1118 22.432C71.3251 22.7733 71.5811 23.0293 71.8798 23.2C72.3491 23.4987 72.8718 23.648 73.4478 23.648ZM83.285 24.192C82.6877 24.192 82.229 23.968 81.909 23.52C81.589 23.0507 81.429 22.4533 81.429 21.728C81.429 20.9387 81.6423 20.0213 82.069 18.976C82.3037 18.4 82.6557 17.8133 83.125 17.216C83.5943 16.5973 84.1383 16.032 84.757 15.52C85.3757 14.9867 86.037 14.56 86.741 14.24C87.4663 13.8987 88.2023 13.728 88.949 13.728C89.525 13.728 89.9197 13.8773 90.133 14.176C90.3463 14.4747 90.453 14.8373 90.453 15.264C90.453 15.6693 90.389 16.0853 90.261 16.512L92.053 13.792C92.2023 13.6853 92.533 13.632 93.045 13.632C93.429 13.632 93.7917 13.6747 94.133 13.76C94.4957 13.8453 94.6023 13.9733 94.453 14.144C94.2823 14.3573 93.9837 14.688 93.557 15.136C93.1517 15.5627 92.7037 16.0747 92.213 16.672C91.7437 17.2693 91.2957 17.8987 90.869 18.56C90.6557 18.9227 90.3357 19.456 89.909 20.16C89.5037 20.864 89.1837 21.536 88.949 22.176C88.821 22.56 88.757 22.8693 88.757 23.104C88.757 23.552 88.949 23.776 89.333 23.776C89.5463 23.776 89.8343 23.7013 90.197 23.552C90.5597 23.3813 90.9117 23.1573 91.253 22.88C91.9357 22.3253 92.533 21.664 93.045 20.896C93.557 20.1067 94.0157 19.4133 94.421 18.816C94.4423 18.7947 94.4637 18.7733 94.485 18.752C94.5277 18.7307 94.5917 18.72 94.677 18.72C94.7623 18.72 94.8263 18.7627 94.869 18.848C94.9117 18.912 94.8903 18.9973 94.805 19.104C94.2077 20 93.621 20.8427 93.045 21.632C92.469 22.4 91.8823 23.0187 91.285 23.488C90.6877 23.9573 90.037 24.192 89.333 24.192C88.7783 24.192 88.3303 24.032 87.989 23.712C87.669 23.3707 87.509 22.912 87.509 22.336C87.509 22.08 87.5303 21.8133 87.573 21.536C87.637 21.2587 87.7117 21.0027 87.797 20.768C87.4557 21.216 87.029 21.7067 86.517 22.24C86.0263 22.7733 85.5037 23.232 84.949 23.616C84.3943 24 83.8397 24.192 83.285 24.192ZM83.573 23.584C83.9997 23.584 84.4477 23.4133 84.917 23.072C85.4077 22.7307 85.8983 22.2933 86.389 21.76C86.8797 21.2053 87.3277 20.6187 87.733 20C88.0743 19.488 88.405 18.944 88.725 18.368C89.0663 17.792 89.3437 17.2267 89.557 16.672C89.7917 16.1173 89.909 15.616 89.909 15.168C89.909 14.4853 89.6637 14.144 89.173 14.144C88.8317 14.144 88.437 14.2933 87.989 14.592C87.541 14.8907 87.0823 15.2747 86.613 15.744C86.165 16.2133 85.7383 16.7253 85.333 17.28C84.949 17.8133 84.6397 18.336 84.405 18.848C84.341 18.976 84.181 19.2853 83.925 19.776C83.6903 20.2667 83.4557 20.8 83.221 21.376C83.0077 21.952 82.901 22.4533 82.901 22.88C82.901 23.3493 83.125 23.584 83.573 23.584ZM76.1653 54.944C75.9946 54.944 75.9093 54.8587 75.9093 54.688C75.9093 54.6027 75.9519 54.5173 76.0373 54.432C76.1226 54.3467 76.1653 54.24 76.1653 54.112C76.1653 53.9413 76.1119 53.76 76.0053 53.568C75.9199 53.376 75.8026 53.2053 75.6533 53.056C75.1839 53.056 74.8213 52.9067 74.5653 52.608C74.3093 52.3093 74.1813 51.968 74.1813 51.584C74.1813 51.392 74.2133 51.2213 74.2773 51.072C73.8933 50.688 73.7013 50.1227 73.7013 49.376C73.7013 48.736 73.8506 48.0213 74.1493 47.232C74.4479 46.4427 74.8853 45.7067 75.4613 45.024L75.6213 44.832C74.8959 44.4693 74.1919 44.1173 73.5093 43.776C72.8479 43.4347 72.2079 43.1147 71.5893 42.816L71.5573 42.848C71.5359 42.848 71.5146 42.8587 71.4933 42.88H71.4613L71.3653 42.944C70.7679 43.328 70.3733 43.776 70.1813 44.288C70.4373 44.352 70.6506 44.4907 70.8213 44.704C70.9919 44.9387 71.0773 45.2053 71.0773 45.504C71.0773 45.76 71.0026 45.9947 70.8533 46.208C70.6399 46.528 70.4906 46.8267 70.4053 47.104C70.3413 47.4027 70.3093 47.6693 70.3093 47.904C70.3093 48.1813 70.3413 48.416 70.4053 48.608C70.4693 48.8213 70.5333 48.9813 70.5973 49.088C70.2773 49.024 69.9786 48.8533 69.7013 48.576C69.4453 48.32 69.2319 48.032 69.0613 47.712C68.8906 47.4133 68.7733 47.1787 68.7093 47.008C68.5813 46.624 68.5173 46.2613 68.5173 45.92C68.5173 45.4933 68.6133 45.12 68.8053 44.8C69.0186 44.5013 69.3279 44.32 69.7333 44.256H69.8613C69.9253 44.0853 69.9999 43.936 70.0853 43.808C70.1919 43.6587 70.2986 43.52 70.4053 43.392C69.7439 43.6693 69.0933 43.8933 68.4533 44.064C67.8133 44.256 67.2159 44.352 66.6613 44.352C65.9359 44.352 65.3706 44.2133 64.9653 43.936C64.5599 43.6373 64.3573 43.264 64.3573 42.816C64.3573 42.4107 64.5279 41.9947 64.8693 41.568C65.0826 41.2907 65.3919 41.0987 65.7973 40.992C66.2239 40.864 66.6826 40.8 67.1733 40.8C67.5999 40.8 68.0479 40.8427 68.5173 40.928C69.0079 40.992 69.4666 41.1093 69.8933 41.28C70.1279 41.3653 70.3519 41.4507 70.5653 41.536C70.7786 41.6 70.9919 41.6853 71.2053 41.792C71.9093 41.2373 72.5813 40.6507 73.2213 40.032C73.8613 39.392 74.4266 38.816 74.9173 38.304C74.6399 38.4107 74.3199 38.496 73.9573 38.56C73.6159 38.6027 73.2746 38.6133 72.9333 38.592C72.6773 38.9547 72.2826 39.136 71.7493 39.136C71.4719 39.136 71.1519 39.072 70.7893 38.944C70.4266 38.7947 70.0213 38.5387 69.5733 38.176C69.1253 37.8133 68.7413 37.4187 68.4213 36.992C68.1226 36.544 67.9733 36.1387 67.9733 35.776C67.9733 35.5627 68.0053 35.424 68.0693 35.36C68.1333 35.296 68.1866 35.264 68.2293 35.264C68.3146 35.4133 68.4319 35.584 68.5813 35.776C68.7519 35.968 68.9119 36.096 69.0613 36.16C69.1466 36.2027 69.2213 36.2347 69.2853 36.256C69.3706 36.256 69.4559 36.256 69.5413 36.256C69.7119 36.256 69.8826 36.2347 70.0533 36.192C70.2239 36.1493 70.4266 36.128 70.6613 36.128C70.7893 36.128 70.9279 36.1387 71.0773 36.16C71.2266 36.1813 71.3866 36.224 71.5573 36.288C71.9626 36.416 72.3253 36.672 72.6453 37.056C72.9653 37.4187 73.1039 37.8133 73.0613 38.24C73.5306 38.2613 74.0106 38.1973 74.5013 38.048C75.0133 37.8773 75.3973 37.7173 75.6533 37.568C76.0799 37.1413 76.5173 36.6933 76.9653 36.224C77.4346 35.7333 77.9039 35.2533 78.3733 34.784C78.0746 34.976 77.7119 35.072 77.2853 35.072C77.1573 35.072 77.0293 35.0613 76.9013 35.04C76.7946 35.0187 76.6879 34.976 76.5813 34.912C76.4319 34.8267 76.3253 34.7093 76.2613 34.56C76.1973 34.3893 76.1653 34.2293 76.1653 34.08C76.1653 33.8027 76.2399 33.568 76.3893 33.376C76.4533 33.312 76.5066 33.28 76.5493 33.28C76.6133 33.28 76.6453 33.3973 76.6453 33.632C76.6453 33.824 76.7626 33.9947 76.9973 34.144C77.2533 34.272 77.5413 34.368 77.8613 34.432C78.1813 34.4747 78.4266 34.4747 78.5973 34.432C78.7039 34.368 78.7786 34.336 78.8213 34.336C80.1866 32.9493 81.6159 31.5733 83.1093 30.208C84.6026 28.8213 86.1173 27.616 87.6533 26.592C86.5226 26.3573 85.2746 26.1333 83.9093 25.92C82.5653 25.7067 81.2853 25.6 80.0693 25.6C79.6213 25.6 79.1839 25.6213 78.7573 25.664C78.3519 25.6853 77.9679 25.7387 77.6053 25.824C76.9013 25.9733 76.1973 26.2187 75.4933 26.56C74.8106 26.9013 74.2453 27.2853 73.7973 27.712C73.3706 28.1387 73.1893 28.5653 73.2533 28.992L72.8053 29.056C72.7839 29.0133 72.7733 28.96 72.7733 28.896C72.7733 28.832 72.7733 28.7787 72.7733 28.736C72.7733 28.2027 72.9546 27.648 73.3173 27.072C73.7013 26.496 74.1919 25.9733 74.7893 25.504C75.4079 25.0347 76.0693 24.7147 76.7733 24.544C77.3493 24.416 77.9999 24.352 78.7253 24.352C79.7279 24.352 80.7946 24.4587 81.9253 24.672C83.0559 24.864 84.1759 25.0987 85.2853 25.376C86.4159 25.6533 87.4506 25.9093 88.3893 26.144C88.8586 25.8453 89.3173 25.5787 89.7653 25.344C90.2346 25.1093 90.7039 24.9067 91.1733 24.736C91.5999 24.5653 92.0266 24.448 92.4533 24.384C92.9013 24.2987 93.3279 24.256 93.7333 24.256C94.3306 24.256 94.8319 24.3413 95.2373 24.512C95.8773 24.8107 96.1973 25.2053 96.1973 25.696C96.1973 26.016 96.0159 26.3253 95.6533 26.624C95.2906 26.9227 94.7039 27.136 93.8933 27.264C93.4239 27.328 92.9439 27.36 92.4533 27.36C91.8986 27.36 91.3439 27.328 90.7893 27.264C90.2346 27.1787 89.6799 27.072 89.1253 26.944C88.0159 27.712 86.9173 28.6187 85.8293 29.664C84.7626 30.7093 83.7066 31.808 82.6613 32.96C81.6373 34.0907 80.6239 35.2 79.6213 36.288C78.6186 37.3547 77.6479 38.3253 76.7093 39.2C76.0693 39.776 75.3866 40.3413 74.6613 40.896C73.9573 41.4293 73.2319 41.9093 72.4853 42.336C73.1253 42.6133 73.7546 42.912 74.3733 43.232C74.9919 43.552 75.5999 43.8613 76.1973 44.16C76.6879 43.6053 77.2533 43.072 77.8933 42.56C77.7439 42.624 77.5626 42.656 77.3493 42.656C77.1786 42.656 77.0293 42.624 76.9013 42.56C76.4959 42.3893 76.2933 42.1333 76.2933 41.792C76.2933 41.5573 76.3679 41.3653 76.5173 41.216C76.5599 41.152 76.6133 41.12 76.6773 41.12C76.8479 41.12 76.9119 41.2373 76.8693 41.472C76.8479 41.7067 77.0293 41.888 77.4133 42.016C77.8186 42.144 78.1493 42.1867 78.4053 42.144C79.4719 41.312 80.6346 40.576 81.8933 39.936C83.1733 39.296 84.4533 38.7947 85.7333 38.432C87.0133 38.0693 88.2186 37.888 89.3493 37.888C91.1199 37.888 92.4213 38.2827 93.2533 39.072C94.0853 39.84 94.5013 40.7467 94.5013 41.792C94.5013 42.6453 94.2346 43.5093 93.7013 44.384C93.1893 45.2587 92.4213 46.016 91.3973 46.656C90.3946 47.3173 89.1573 47.7653 87.6853 48C87.4506 48.0213 87.2053 48.0427 86.9493 48.064C86.6933 48.1067 86.4373 48.128 86.1813 48.128C84.5599 48.128 82.8853 47.808 81.1573 47.168C79.4293 46.5493 77.7439 45.8453 76.1013 45.056L75.9733 45.216C75.8239 45.408 75.6746 45.6 75.5253 45.792C75.3973 45.984 75.2799 46.176 75.1733 46.368C75.1946 46.624 75.3013 46.9227 75.4933 47.264C75.6853 47.6267 75.8986 47.776 76.1333 47.712C76.1759 47.712 76.1973 47.7013 76.1973 47.68C76.2186 47.68 76.2399 47.68 76.2613 47.68C76.4106 47.68 76.4853 47.744 76.4853 47.872C76.4853 47.9573 76.4213 48.0533 76.2933 48.16C76.1653 48.288 76.0053 48.352 75.8133 48.352C75.5359 48.352 75.2799 48.192 75.0453 47.872C74.9599 47.7653 74.9066 47.616 74.8853 47.424C74.8639 47.2533 74.8533 47.0933 74.8533 46.944C74.4479 47.8187 74.2453 48.5973 74.2453 49.28C74.2453 49.8133 74.3733 50.2933 74.6293 50.72C74.6506 50.72 74.6826 50.7413 74.7253 50.784C74.8319 50.8907 74.9706 50.9867 75.1413 51.072C75.3333 51.1787 75.5573 51.232 75.8133 51.232C75.9413 51.232 76.0799 51.2213 76.2293 51.2C76.3999 51.1787 76.5599 51.1253 76.7093 51.04C76.9653 50.9333 77.2426 50.88 77.5413 50.88C77.9679 50.88 78.3306 50.9973 78.6293 51.232C78.7359 51.3173 78.8319 51.4347 78.9173 51.584C79.0026 51.7547 79.0453 51.936 79.0453 52.128C79.0453 52.2773 78.9919 52.4587 78.8853 52.672C78.8639 52.7573 78.8213 52.8 78.7573 52.8C78.7359 52.8 78.7146 52.7573 78.6933 52.672C78.6719 52.608 78.6613 52.5333 78.6613 52.448C78.6613 52.192 78.4906 52.064 78.1493 52.064C77.9573 52.064 77.7439 52.1387 77.5093 52.288C77.0613 52.6293 76.6773 52.8427 76.3573 52.928C76.5919 53.0987 76.7519 53.2693 76.8373 53.44C76.9439 53.696 76.9973 53.8987 76.9973 54.048C76.9973 54.3253 76.9013 54.5387 76.7093 54.688C76.5386 54.8587 76.3679 54.944 76.1973 54.944H76.1653ZM92.7413 26.784C93.7013 26.784 94.3946 26.6773 94.8213 26.464C95.2479 26.2293 95.4613 25.984 95.4613 25.728C95.4613 25.5147 95.3333 25.3333 95.0773 25.184C94.8213 25.0347 94.4586 24.96 93.9893 24.96C93.7119 24.96 93.4133 24.992 93.0933 25.056C92.7733 25.0987 92.4319 25.1947 92.0693 25.344C91.3439 25.6213 90.6186 25.9947 89.8933 26.464C90.4693 26.5707 90.9919 26.656 91.4613 26.72C91.9306 26.7627 92.3573 26.784 92.7413 26.784ZM85.2533 46.784C85.6159 46.784 85.9893 46.7733 86.3733 46.752C86.7786 46.7307 87.1839 46.688 87.5893 46.624C88.8693 46.432 89.9253 46.08 90.7573 45.568C91.6106 45.0773 92.2506 44.4907 92.6773 43.808C93.1039 43.1253 93.3173 42.4533 93.3173 41.792C93.3173 40.896 92.9439 40.1173 92.1973 39.456C91.4506 38.7733 90.3199 38.432 88.8053 38.432C87.5466 38.432 86.1919 38.6987 84.7413 39.232C83.2906 39.7653 81.9039 40.4373 80.5813 41.248C80.1333 41.76 79.9093 42.2933 79.9093 42.848C79.9519 42.848 80.0053 42.8587 80.0693 42.88C80.1333 42.88 80.2079 42.8907 80.2933 42.912C80.5279 42.9973 80.6666 43.136 80.7093 43.328C80.7733 43.4987 80.8053 43.648 80.8053 43.776V43.968C80.8053 44.096 80.8159 44.2133 80.8373 44.32C80.8586 44.448 80.9013 44.544 80.9653 44.608C81.0933 44.7573 81.2319 44.864 81.3813 44.928C81.5306 45.0133 81.6479 45.0773 81.7333 45.12C81.5839 45.184 81.4026 45.216 81.1893 45.216C80.9119 45.216 80.6346 45.1733 80.3573 45.088C80.1013 45.0027 79.9199 44.9173 79.8133 44.832C79.5999 44.6613 79.4399 44.48 79.3333 44.288C79.2266 44.096 79.1733 43.9147 79.1733 43.744C79.1733 43.36 79.3333 43.0933 79.6533 42.944C79.6319 42.688 79.6533 42.4533 79.7173 42.24C79.8026 42.0267 79.8986 41.824 80.0053 41.632C78.7253 42.464 77.6159 43.3813 76.6773 44.384C77.9999 45.0453 79.3439 45.6107 80.7093 46.08C82.0959 46.5493 83.6106 46.784 85.2533 46.784ZM66.6293 43.872C67.2266 43.872 67.8559 43.7333 68.5173 43.456C69.1786 43.1787 69.8399 42.8053 70.5013 42.336C69.8186 42.0373 69.1786 41.8027 68.5813 41.632C67.9839 41.4613 67.4399 41.376 66.9493 41.376C66.6719 41.376 66.4053 41.4187 66.1493 41.504C65.8933 41.568 65.6693 41.6853 65.4773 41.856C65.1359 42.1547 64.9653 42.4853 64.9653 42.848C64.9653 43.1253 65.0933 43.3707 65.3493 43.584C65.6266 43.776 66.0533 43.872 66.6293 43.872ZM102.247 32.352C101.948 32.352 101.713 32.256 101.543 32.064C101.393 31.872 101.319 31.648 101.319 31.392C101.319 30.9653 101.468 30.624 101.767 30.368C102.065 30.112 102.385 29.984 102.727 29.984C103.025 29.984 103.26 30.08 103.431 30.272C103.601 30.4427 103.687 30.6667 103.687 30.944C103.687 31.3493 103.537 31.6907 103.239 31.968C102.94 32.224 102.609 32.352 102.247 32.352ZM96.9345 44.384C96.3585 44.384 95.8678 44.2133 95.4625 43.872C95.0785 43.5093 94.8865 42.9973 94.8865 42.336C94.8865 41.9947 94.9505 41.6 95.0785 41.152C95.2278 40.6827 95.3985 40.256 95.5905 39.872C95.8038 39.4667 95.9852 39.136 96.1345 38.88C96.3052 38.624 96.3905 38.496 96.3905 38.496L99.5265 33.856C99.6545 33.7493 99.8145 33.6853 100.007 33.664C100.199 33.6213 100.401 33.6 100.615 33.6C100.913 33.6 101.169 33.632 101.383 33.696C101.596 33.7387 101.681 33.8133 101.639 33.92L98.4705 38.624C98.4065 38.7093 98.1932 39.008 97.8305 39.52C97.4892 40.0107 97.1585 40.5547 96.8385 41.152C96.4332 41.8987 96.2305 42.5387 96.2305 43.072C96.2305 43.648 96.4972 43.936 97.0305 43.936C97.2012 43.936 97.4038 43.904 97.6385 43.84C97.8945 43.7547 98.1825 43.6267 98.5025 43.456C99.8465 42.7093 101.223 41.1947 102.631 38.912C102.695 38.8053 102.748 38.752 102.791 38.752C102.855 38.7307 102.897 38.72 102.919 38.72C103.025 38.72 103.089 38.7627 103.111 38.848C103.153 38.912 103.143 38.9973 103.079 39.104C102.311 40.2773 101.553 41.2907 100.807 42.144C100.081 42.9973 99.3132 43.616 98.5025 44C97.9692 44.256 97.4465 44.384 96.9345 44.384ZM104.843 44.288C104.289 44.288 103.766 44.16 103.275 43.904C102.785 43.6267 102.422 43.1893 102.187 42.592C102.038 42.208 101.963 41.7707 101.963 41.28C101.963 40.6827 102.081 40.096 102.315 39.52C102.614 38.816 103.051 38.1227 103.627 37.44C104.203 36.7573 104.843 36.1387 105.547 35.584C106.251 35.0293 106.955 34.592 107.659 34.272C108.363 33.9307 108.993 33.76 109.547 33.76C110.017 33.76 110.39 33.888 110.667 34.144C110.859 34.336 110.955 34.6133 110.955 34.976C110.955 35.4453 110.774 35.9893 110.411 36.608C110.07 37.2053 109.579 37.728 108.939 38.176C108.534 38.4533 108.054 38.688 107.499 38.88C106.966 39.0507 106.401 39.136 105.803 39.136C105.611 39.136 105.409 39.1253 105.195 39.104C105.003 39.0827 104.811 39.0507 104.619 39.008C104.47 39.1787 104.289 39.456 104.075 39.84C103.883 40.2027 103.713 40.608 103.563 41.056C103.435 41.504 103.371 41.9307 103.371 42.336C103.393 42.8907 103.542 43.2853 103.819 43.52C104.118 43.7333 104.47 43.84 104.875 43.84C105.686 43.84 106.465 43.584 107.211 43.072C107.979 42.5387 108.673 41.888 109.291 41.12C109.91 40.352 110.433 39.616 110.859 38.912C110.923 38.8267 110.977 38.784 111.019 38.784C111.062 38.7627 111.094 38.752 111.115 38.752C111.179 38.752 111.233 38.784 111.275 38.848C111.339 38.912 111.35 38.9973 111.307 39.104C111.03 39.552 110.667 40.0853 110.219 40.704C109.793 41.3227 109.281 41.92 108.683 42.496C108.107 43.0507 107.457 43.5093 106.731 43.872C106.454 44.0213 106.145 44.128 105.803 44.192C105.483 44.256 105.163 44.288 104.843 44.288ZM105.515 38.688C106.518 38.688 107.425 38.432 108.235 37.92C109.067 37.3867 109.665 36.7467 110.027 36C110.134 35.8293 110.198 35.6693 110.219 35.52C110.262 35.3707 110.283 35.2533 110.283 35.168C110.283 34.8053 110.081 34.624 109.675 34.624C109.419 34.624 109.131 34.688 108.811 34.816C108.513 34.944 108.246 35.0933 108.011 35.264C107.606 35.5627 107.179 35.936 106.731 36.384C106.305 36.8107 105.921 37.2373 105.579 37.664C105.238 38.0693 104.982 38.3893 104.811 38.624C104.918 38.6453 105.035 38.6667 105.163 38.688C105.291 38.688 105.409 38.688 105.515 38.688ZM105.51 56.448C104.955 56.448 104.497 56.288 104.134 55.968C103.771 55.648 103.59 55.2213 103.59 54.688C103.59 54.432 103.643 54.144 103.75 53.824C103.857 53.5253 104.027 53.216 104.262 52.896C104.689 52.2987 105.318 51.6267 106.15 50.88C106.961 50.1547 107.814 49.4613 108.71 48.8C109.691 48.0533 110.63 47.392 111.526 46.816C112.443 46.2613 113.211 45.8133 113.83 45.472C114.47 45.152 114.843 44.9707 114.95 44.928C114.993 44.8853 115.067 44.704 115.174 44.384C115.302 44.0853 115.441 43.744 115.59 43.36C115.739 42.976 115.867 42.624 115.974 42.304C116.102 41.9627 116.187 41.7387 116.23 41.632L116.518 40.896C116.134 41.3867 115.686 41.888 115.174 42.4C114.683 42.8907 114.15 43.3067 113.574 43.648C113.019 43.9893 112.443 44.16 111.846 44.16C111.121 44.16 110.619 43.936 110.342 43.488C110.086 43.0187 109.958 42.5067 109.958 41.952C109.958 41.6747 109.979 41.408 110.022 41.152C110.086 40.8747 110.15 40.6293 110.214 40.416C110.406 39.7973 110.726 39.1147 111.174 38.368C111.643 37.6213 112.209 36.9067 112.87 36.224C113.531 35.52 114.257 34.944 115.046 34.496C115.857 34.048 116.689 33.824 117.542 33.824C118.182 33.824 118.609 33.984 118.822 34.304C119.057 34.624 119.174 34.9867 119.174 35.392C119.174 35.4773 119.163 35.5627 119.142 35.648C119.142 35.7333 119.131 35.8293 119.11 35.936C119.345 35.5733 119.675 35.1147 120.102 34.56C120.55 33.984 120.977 33.5253 121.382 33.184C121.681 32.9493 121.979 32.832 122.278 32.832C122.513 32.832 122.705 32.896 122.854 33.024C123.025 33.1307 123.11 33.2587 123.11 33.408C123.11 33.5573 123.003 33.696 122.79 33.824C122.129 34.1653 121.51 34.5493 120.934 34.976C120.358 35.3813 119.846 35.8827 119.398 36.48C119.057 36.9493 118.758 37.5253 118.502 38.208C118.246 38.8907 118.022 39.6053 117.83 40.352C117.638 41.0773 117.457 41.7813 117.286 42.464C117.115 43.1253 116.945 43.6907 116.774 44.16C117.115 43.9467 117.585 43.584 118.182 43.072C118.779 42.56 119.398 41.9413 120.038 41.216C120.699 40.4907 121.265 39.7227 121.734 38.912C121.819 38.8053 121.883 38.7413 121.926 38.72C121.969 38.6987 122.011 38.688 122.054 38.688C122.118 38.688 122.171 38.72 122.214 38.784C122.278 38.8267 122.299 38.88 122.278 38.944C121.681 39.9893 120.998 40.9387 120.23 41.792C119.462 42.6453 118.747 43.3387 118.086 43.872C117.425 44.4053 116.945 44.736 116.646 44.864C116.198 46.144 115.601 47.4987 114.854 48.928C114.129 50.3787 113.19 51.744 112.038 53.024C111.611 53.4933 111.046 53.9947 110.342 54.528C109.659 55.0613 108.902 55.5093 108.07 55.872C107.238 56.256 106.385 56.448 105.51 56.448ZM112.326 43.584C112.817 43.584 113.329 43.3707 113.862 42.944C114.417 42.5173 114.961 41.9733 115.494 41.312C116.049 40.6507 116.55 39.9573 116.998 39.232C117.446 38.5067 117.809 37.8347 118.086 37.216C118.385 36.5973 118.555 36.128 118.598 35.808C118.619 35.7013 118.63 35.5947 118.63 35.488C118.651 35.36 118.662 35.2533 118.662 35.168C118.662 34.4853 118.417 34.144 117.926 34.144C117.585 34.144 117.19 34.2933 116.742 34.592C116.294 34.8907 115.835 35.2747 115.366 35.744C114.918 36.2133 114.491 36.7253 114.086 37.28C113.702 37.8133 113.393 38.336 113.158 38.848C113.094 38.976 112.934 39.2853 112.678 39.776C112.443 40.2667 112.209 40.8 111.974 41.376C111.761 41.952 111.654 42.4533 111.654 42.88C111.654 43.3493 111.878 43.584 112.326 43.584ZM105.414 55.936C105.905 55.936 106.491 55.6907 107.174 55.2C107.835 54.7093 108.529 54.0693 109.254 53.28C110.001 52.4907 110.726 51.6373 111.43 50.72C112.134 49.8027 112.774 48.9067 113.35 48.032C113.926 47.1573 114.385 46.3893 114.726 45.728C114.427 45.8773 113.969 46.1333 113.35 46.496C112.731 46.88 112.027 47.328 111.238 47.84C110.449 48.3733 109.649 48.9493 108.838 49.568C108.049 50.1867 107.313 50.8053 106.63 51.424C105.926 52.064 105.371 52.672 104.966 53.248C104.539 53.824 104.326 54.3467 104.326 54.816C104.326 55.0293 104.39 55.232 104.518 55.424C104.731 55.7653 105.03 55.936 105.414 55.936ZM127.809 44.352C127.382 44.352 127.009 44.2027 126.689 43.904C126.369 43.6053 126.209 43.1787 126.209 42.624C126.209 42.3893 126.262 42.08 126.369 41.696C126.07 42.0587 125.718 42.4427 125.313 42.848C124.929 43.2533 124.502 43.5947 124.033 43.872C123.585 44.1493 123.126 44.288 122.657 44.288C122.401 44.288 122.177 44.2453 121.985 44.16C121.644 44.032 121.398 43.8293 121.249 43.552C121.121 43.2533 121.057 42.9333 121.057 42.592C121.057 41.9947 121.174 41.376 121.409 40.736C121.665 40.096 121.889 39.5947 122.081 39.232C122.06 39.2533 122.028 39.264 121.985 39.264C121.9 39.264 121.814 39.232 121.729 39.168C121.665 39.0827 121.665 38.9973 121.729 38.912C121.878 38.72 122.102 38.4 122.401 37.952C122.721 37.504 123.073 37.0133 123.457 36.48C123.841 35.9467 124.193 35.4453 124.513 34.976C124.854 34.5067 125.11 34.144 125.281 33.888C125.452 33.8453 125.697 33.7813 126.017 33.696C126.358 33.5893 126.668 33.536 126.945 33.536C127.265 33.536 127.5 33.6213 127.649 33.792C127.414 34.1547 127.084 34.6347 126.657 35.232C126.23 35.8293 125.761 36.48 125.249 37.184C124.758 37.888 124.289 38.6133 123.841 39.36C123.393 40.1067 123.02 40.8213 122.721 41.504C122.444 42.1653 122.305 42.7413 122.305 43.232C122.305 43.5947 122.497 43.776 122.881 43.776C123.329 43.7547 123.852 43.4773 124.449 42.944C125.068 42.3893 125.697 41.696 126.337 40.864C126.998 40.032 127.628 39.1787 128.225 38.304C129.185 36.8533 129.932 35.7227 130.465 34.912C130.998 34.1013 131.265 33.696 131.265 33.696C131.436 33.6747 131.67 33.6213 131.969 33.536C132.289 33.4293 132.588 33.376 132.865 33.376C133.185 33.376 133.388 33.472 133.473 33.664C133.324 33.8987 133.014 34.336 132.545 34.976C132.097 35.616 131.585 36.352 131.009 37.184C130.454 38.016 129.921 38.8587 129.409 39.712C129.238 39.9893 129.046 40.32 128.833 40.704C128.62 41.0667 128.428 41.3973 128.257 41.696C128.065 42.0373 127.937 42.3147 127.873 42.528C127.83 42.7413 127.809 42.912 127.809 43.04C127.809 43.4667 128.022 43.68 128.449 43.68C128.684 43.68 128.972 43.5947 129.313 43.424C129.654 43.232 129.974 42.976 130.273 42.656C130.678 42.272 131.084 41.8027 131.489 41.248C131.916 40.672 132.406 39.8933 132.961 38.912C133.004 38.8267 133.1 38.784 133.249 38.784C133.356 38.784 133.42 38.8267 133.441 38.912C133.462 38.976 133.452 39.04 133.409 39.104C133.004 39.7653 132.609 40.4053 132.225 41.024C131.862 41.6213 131.414 42.208 130.881 42.784C130.39 43.3173 129.868 43.712 129.313 43.968C128.78 44.224 128.278 44.352 127.809 44.352ZM135.156 44.288C134.601 44.288 134.078 44.16 133.588 43.904C133.097 43.6267 132.734 43.1893 132.5 42.592C132.35 42.208 132.276 41.7707 132.276 41.28C132.276 40.6827 132.393 40.096 132.628 39.52C132.926 38.816 133.364 38.1227 133.94 37.44C134.516 36.7573 135.156 36.1387 135.86 35.584C136.564 35.0293 137.268 34.592 137.972 34.272C138.676 33.9307 139.305 33.76 139.86 33.76C140.329 33.76 140.702 33.888 140.98 34.144C141.172 34.336 141.268 34.6133 141.268 34.976C141.268 35.4453 141.086 35.9893 140.724 36.608C140.382 37.2053 139.892 37.728 139.252 38.176C138.846 38.4533 138.366 38.688 137.812 38.88C137.278 39.0507 136.713 39.136 136.116 39.136C135.924 39.136 135.721 39.1253 135.508 39.104C135.316 39.0827 135.124 39.0507 134.932 39.008C134.782 39.1787 134.601 39.456 134.388 39.84C134.196 40.2027 134.025 40.608 133.876 41.056C133.748 41.504 133.684 41.9307 133.684 42.336C133.705 42.8907 133.854 43.2853 134.132 43.52C134.43 43.7333 134.782 43.84 135.188 43.84C135.998 43.84 136.777 43.584 137.524 43.072C138.292 42.5387 138.985 41.888 139.604 41.12C140.222 40.352 140.745 39.616 141.172 38.912C141.236 38.8267 141.289 38.784 141.332 38.784C141.374 38.7627 141.406 38.752 141.428 38.752C141.492 38.752 141.545 38.784 141.588 38.848C141.652 38.912 141.662 38.9973 141.62 39.104C141.342 39.552 140.98 40.0853 140.532 40.704C140.105 41.3227 139.593 41.92 138.996 42.496C138.42 43.0507 137.769 43.5093 137.044 43.872C136.766 44.0213 136.457 44.128 136.116 44.192C135.796 44.256 135.476 44.288 135.156 44.288ZM135.828 38.688C136.83 38.688 137.737 38.432 138.548 37.92C139.38 37.3867 139.977 36.7467 140.34 36C140.446 35.8293 140.51 35.6693 140.532 35.52C140.574 35.3707 140.596 35.2533 140.596 35.168C140.596 34.8053 140.393 34.624 139.988 34.624C139.732 34.624 139.444 34.688 139.124 34.816C138.825 34.944 138.558 35.0933 138.324 35.264C137.918 35.5627 137.492 35.936 137.044 36.384C136.617 36.8107 136.233 37.2373 135.892 37.664C135.55 38.0693 135.294 38.3893 135.124 38.624C135.23 38.6453 135.348 38.6667 135.476 38.688C135.604 38.688 135.721 38.688 135.828 38.688ZM144.143 44.32C143.716 44.32 143.332 44.192 142.991 43.936C142.671 43.68 142.511 43.3173 142.511 42.848C142.511 42.3147 142.649 41.7387 142.927 41.12C143.225 40.5013 143.545 39.9467 143.887 39.456C144.228 38.944 144.452 38.6133 144.559 38.464C144.943 37.952 145.295 37.4293 145.615 36.896C145.956 36.3413 146.127 35.8933 146.127 35.552C146.127 35.232 145.988 35.0293 145.711 34.944C145.476 34.8587 145.231 34.7733 144.975 34.688C144.719 34.5813 144.527 34.5173 144.399 34.496C144.335 34.6027 144.185 34.8587 143.951 35.264C143.716 35.648 143.439 36.096 143.119 36.608C142.82 37.0987 142.532 37.5787 142.255 38.048C141.977 38.5173 141.764 38.8693 141.615 39.104C141.487 39.2533 141.38 39.328 141.295 39.328C141.209 39.328 141.145 39.2853 141.103 39.2C141.081 39.1147 141.103 39.0187 141.167 38.912C141.807 37.9093 142.372 36.9707 142.863 36.096C143.353 35.2213 143.673 34.6667 143.823 34.432C143.609 34.2827 143.439 34.0267 143.311 33.664C143.183 33.3013 143.119 32.928 143.119 32.544C143.119 32.1173 143.204 31.7333 143.375 31.392C143.545 31.0507 143.833 30.88 144.239 30.88C144.516 30.88 144.708 31.0187 144.815 31.296C144.921 31.552 144.975 31.8507 144.975 32.192C144.975 32.4907 144.943 32.7787 144.879 33.056C144.815 33.3333 144.761 33.5253 144.719 33.632L144.495 34.144C144.751 34.1653 145.135 34.208 145.647 34.272C146.159 34.336 146.692 34.4107 147.247 34.496C147.567 34.5387 147.823 34.656 148.015 34.848C148.228 35.04 148.335 35.296 148.335 35.616C148.335 35.936 148.228 36.32 148.015 36.768C147.801 37.216 147.439 37.728 146.927 38.304C146.671 38.6027 146.361 38.9973 145.999 39.488C145.636 39.9787 145.295 40.4587 144.975 40.928C144.655 41.376 144.42 41.728 144.271 41.984C143.993 42.432 143.855 42.8373 143.855 43.2C143.855 43.6053 144.079 43.808 144.527 43.808C145.017 43.808 145.54 43.6267 146.095 43.264C146.649 42.88 147.193 42.4107 147.727 41.856C148.26 41.3013 148.729 40.7573 149.135 40.224C149.561 39.6693 149.871 39.232 150.063 38.912C150.148 38.7627 150.265 38.688 150.415 38.688C150.521 38.688 150.575 38.7413 150.575 38.848C150.575 38.9547 150.553 39.04 150.511 39.104C150.297 39.424 149.945 39.904 149.455 40.544C148.985 41.184 148.42 41.8347 147.759 42.496C147.097 43.136 146.361 43.6373 145.551 44C145.295 44.1067 145.039 44.1813 144.783 44.224C144.527 44.288 144.313 44.32 144.143 44.32Z" fill="#F1F5F9"/>
</svg>
