<svg width="64" height="64" viewBox="0 0 64 64" fill="none" xmlns="http://www.w3.org/2000/svg">
<path d="M61.4998 31.0003C61.4965 28.3924 60.7396 25.841 59.3204 23.6531C57.9011 21.4652 55.8798 19.734 53.4998 18.6678V18.0003C53.4973 15.4627 52.6555 12.9973 51.1057 10.988C49.5558 8.97866 47.3849 7.53841 44.9311 6.89159C42.4774 6.24477 39.8786 6.4277 37.5396 7.41188C35.2007 8.39606 33.2529 10.1262 31.9998 12.3328C30.7467 10.1262 28.799 8.39606 26.46 7.41188C24.1211 6.4277 21.5223 6.24477 19.0685 6.89159C16.6147 7.53841 14.4438 8.97866 12.894 10.988C11.3441 12.9973 10.5023 15.4627 10.4998 18.0003V18.6678C8.11795 19.7304 6.09488 21.4603 4.6752 23.6482C3.25551 25.8361 2.5 28.3884 2.5 30.9966C2.5 33.6047 3.25551 36.157 4.6752 38.345C6.09488 40.5329 8.11795 42.2627 10.4998 43.3253V44.0003C10.5023 46.5379 11.3441 49.0034 12.894 51.0127C14.4438 53.022 16.6147 54.4622 19.0685 55.1091C21.5223 55.7559 24.1211 55.573 26.46 54.5888C28.799 53.6046 30.7467 51.8744 31.9998 49.6678C33.2529 51.8744 35.2007 53.6046 37.5396 54.5888C39.8786 55.573 42.4774 55.7559 44.9311 55.1091C47.3849 54.4622 49.5558 53.022 51.1057 51.0127C52.6555 49.0034 53.4973 46.5379 53.4998 44.0003V43.3253C55.8798 42.2612 57.9013 40.5315 59.3207 38.3447C60.7401 36.158 61.4969 33.6074 61.4998 31.0003ZM21.9998 52.5003C19.7907 52.5014 17.6679 51.6423 16.0812 50.1051C14.4945 48.568 13.5687 46.4734 13.4998 44.2653C14.324 44.4216 15.161 44.5003 15.9998 44.5003H17.9998C18.3976 44.5003 18.7792 44.3423 19.0605 44.061C19.3418 43.7797 19.4998 43.3981 19.4998 43.0003C19.4998 42.6025 19.3418 42.221 19.0605 41.9397C18.7792 41.6584 18.3976 41.5003 17.9998 41.5003H15.9998C13.5214 41.5023 11.1222 40.6276 9.22665 39.0309C7.33113 37.4341 6.06152 35.2184 5.64248 32.7756C5.22343 30.3329 5.68197 27.8207 6.93695 25.6835C8.19193 23.5463 10.1624 21.922 12.4998 21.0978C12.7924 20.9944 13.0457 20.8027 13.2248 20.5493C13.4039 20.2959 13.5 19.9932 13.4998 19.6828V18.0003C13.4998 15.746 14.3954 13.584 15.9894 11.9899C17.5835 10.3959 19.7455 9.50032 21.9998 9.50032C24.2542 9.50032 26.4162 10.3959 28.0102 11.9899C29.6043 13.584 30.4998 15.746 30.4998 18.0003V36.2628C29.4239 35.0773 28.1119 34.1301 26.648 33.4821C25.1841 32.8341 23.6007 32.4997 21.9998 32.5003C21.602 32.5003 21.2205 32.6584 20.9392 32.9397C20.6579 33.221 20.4998 33.6025 20.4998 34.0003C20.4998 34.3981 20.6579 34.7797 20.9392 35.061C21.2205 35.3423 21.602 35.5003 21.9998 35.5003C24.2542 35.5003 26.4162 36.3959 28.0102 37.9899C29.6043 39.584 30.4998 41.746 30.4998 44.0003C30.4998 46.2547 29.6043 48.4167 28.0102 50.0107C26.4162 51.6048 24.2542 52.5003 21.9998 52.5003ZM47.9998 41.5003H45.9998C45.602 41.5003 45.2205 41.6584 44.9392 41.9397C44.6579 42.221 44.4998 42.6025 44.4998 43.0003C44.4998 43.3981 44.6579 43.7797 44.9392 44.061C45.2205 44.3423 45.602 44.5003 45.9998 44.5003H47.9998C48.8387 44.5003 49.6757 44.4216 50.4998 44.2653C50.4478 45.9342 49.9054 47.5508 48.9403 48.9133C47.9752 50.2758 46.6302 51.3239 45.0732 51.9268C43.5162 52.5297 41.8161 52.6607 40.1851 52.3034C38.5541 51.9461 37.0644 51.1164 35.902 49.9178C34.7396 48.7192 33.956 47.2047 33.6489 45.5635C33.3419 43.9223 33.525 42.227 34.1754 40.6893C34.8258 39.1515 35.9147 37.8393 37.3062 36.9165C38.6977 35.9937 40.3301 35.5011 41.9998 35.5003C42.3976 35.5003 42.7792 35.3423 43.0605 35.061C43.3418 34.7797 43.4998 34.3981 43.4998 34.0003C43.4998 33.6025 43.3418 33.221 43.0605 32.9397C42.7792 32.6584 42.3976 32.5003 41.9998 32.5003C40.3989 32.4997 38.8156 32.8341 37.3517 33.4821C35.8878 34.1301 34.5757 35.0773 33.4998 36.2628V18.0003C33.4998 15.746 34.3954 13.584 35.9894 11.9899C37.5835 10.3959 39.7455 9.50032 41.9998 9.50032C44.2542 9.50032 46.4162 10.3959 48.0102 11.9899C49.6043 13.584 50.4998 15.746 50.4998 18.0003V19.6828C50.4997 19.9932 50.5958 20.2959 50.7749 20.5493C50.954 20.8027 51.2072 20.9944 51.4998 21.0978C53.8372 21.922 55.8077 23.5463 57.0627 25.6835C58.3177 27.8207 58.7762 30.3329 58.3572 32.7756C57.9381 35.2184 56.6685 37.4341 54.773 39.0309C52.8775 40.6276 50.4782 41.5023 47.9998 41.5003ZM51.4998 28.0003C51.4998 28.3981 51.3418 28.7797 51.0605 29.061C50.7792 29.3423 50.3976 29.5003 49.9998 29.5003H48.9998C46.7455 29.5003 44.5835 28.6048 42.9894 27.0107C41.3954 25.4167 40.4998 23.2547 40.4998 21.0003V20.0003C40.4998 19.6025 40.6579 19.221 40.9392 18.9397C41.2205 18.6584 41.602 18.5003 41.9998 18.5003C42.3976 18.5003 42.7792 18.6584 43.0605 18.9397C43.3418 19.221 43.4998 19.6025 43.4998 20.0003V21.0003C43.4998 22.459 44.0793 23.858 45.1107 24.8894C46.1422 25.9209 47.5411 26.5003 48.9998 26.5003H49.9998C50.3976 26.5003 50.7792 26.6584 51.0605 26.9397C51.3418 27.221 51.4998 27.6025 51.4998 28.0003ZM14.9998 29.5003H13.9998C13.602 29.5003 13.2205 29.3423 12.9392 29.061C12.6579 28.7797 12.4998 28.3981 12.4998 28.0003C12.4998 27.6025 12.6579 27.221 12.9392 26.9397C13.2205 26.6584 13.602 26.5003 13.9998 26.5003H14.9998C16.4585 26.5003 17.8575 25.9209 18.8889 24.8894C19.9204 23.858 20.4998 22.459 20.4998 21.0003V20.0003C20.4998 19.6025 20.6579 19.221 20.9392 18.9397C21.2205 18.6584 21.602 18.5003 21.9998 18.5003C22.3976 18.5003 22.7792 18.6584 23.0605 18.9397C23.3418 19.221 23.4998 19.6025 23.4998 20.0003V21.0003C23.4998 23.2547 22.6043 25.4167 21.0102 27.0107C19.4162 28.6048 17.2542 29.5003 14.9998 29.5003Z" fill="#FF3366"/>
</svg>
