<svg width="64" height="64" viewBox="0 0 64 64" fill="none" xmlns="http://www.w3.org/2000/svg">
<path d="M18 35.5H8C7.60218 35.5 7.22064 35.342 6.93934 35.0607C6.65804 34.7794 6.5 34.3978 6.5 34C6.5 33.6022 6.65804 33.2206 6.93934 32.9393C7.22064 32.658 7.60218 32.5 8 32.5H17.1975L20.75 27.1675C20.8868 26.9612 21.0726 26.792 21.2907 26.675C21.5088 26.5579 21.7525 26.4967 22 26.4967C22.2475 26.4967 22.4912 26.5579 22.7093 26.675C22.9274 26.792 23.1132 26.9612 23.25 27.1675L30 37.295L32.75 33.1675C32.8872 32.9618 33.0731 32.7933 33.2912 32.6768C33.5093 32.5604 33.7528 32.4996 34 32.5H40C40.3978 32.5 40.7794 32.658 41.0607 32.9393C41.342 33.2206 41.5 33.6022 41.5 34C41.5 34.3978 41.342 34.7794 41.0607 35.0607C40.7794 35.342 40.3978 35.5 40 35.5H34.8025L31.25 40.8325C31.1132 41.0388 30.9274 41.208 30.7093 41.325C30.4912 41.4421 30.2475 41.5033 30 41.5033C29.7525 41.5033 29.5088 41.4421 29.2907 41.325C29.0726 41.208 28.8868 41.0388 28.75 40.8325L22 30.705L19.25 34.8325C19.1128 35.0382 18.9269 35.2067 18.7088 35.3232C18.4907 35.4396 18.2472 35.5004 18 35.5ZM44.5 10.5C39.25 10.5 34.685 12.8675 32 16.835C29.315 12.8675 24.75 10.5 19.5 10.5C15.5232 10.5046 11.7106 12.0865 8.89851 14.8985C6.08647 17.7106 4.50463 21.5232 4.5 25.5C4.5 25.6817 4.5 25.8642 4.5 26.0475C4.5126 26.4453 4.68272 26.8219 4.97293 27.0942C5.11663 27.2291 5.28548 27.3344 5.46986 27.404C5.65423 27.4736 5.85052 27.5062 6.0475 27.5C6.24448 27.4938 6.43831 27.4488 6.61791 27.3676C6.79751 27.2865 6.95937 27.1708 7.09425 27.0271C7.22912 26.8834 7.33438 26.7145 7.404 26.5301C7.47362 26.3458 7.50624 26.1495 7.5 25.9525C7.5 25.8025 7.5 25.65 7.5 25.5C7.50331 22.3184 8.76865 19.2681 11.0184 17.0184C13.2681 14.7687 16.3184 13.5033 19.5 13.5C24.57 13.5 28.8275 16.2075 30.6125 20.5675C30.7255 20.8426 30.9178 21.0779 31.1648 21.2435C31.4119 21.4091 31.7026 21.4975 32 21.4975C32.2974 21.4975 32.5881 21.4091 32.8352 21.2435C33.0822 21.0779 33.2745 20.8426 33.3875 20.5675C35.1725 16.2075 39.43 13.5 44.5 13.5C47.6816 13.5033 50.7319 14.7687 52.9816 17.0184C55.2313 19.2681 56.4967 22.3184 56.5 25.5C56.5 39.4325 36.0975 51.9125 32 54.2775C29.54 52.8625 21.2275 47.8225 14.96 40.9875C14.8297 40.8329 14.6694 40.7063 14.4889 40.6152C14.3084 40.5242 14.1113 40.4705 13.9096 40.4575C13.7078 40.4446 13.5055 40.4725 13.3148 40.5397C13.1241 40.6069 12.949 40.7119 12.7999 40.8485C12.6508 40.9851 12.5309 41.1504 12.4473 41.3345C12.3638 41.5186 12.3183 41.7177 12.3137 41.9199C12.309 42.122 12.3452 42.323 12.4202 42.5107C12.4952 42.6985 12.6074 42.8692 12.75 43.0125C20.485 51.455 30.8525 57.085 31.29 57.32C31.5083 57.4373 31.7522 57.4987 32 57.4987C32.2478 57.4987 32.4917 57.4373 32.71 57.32C37.42 54.6722 41.8624 51.5744 45.975 48.07C54.95 40.3975 59.5 32.8 59.5 25.5C59.4954 21.5232 57.9135 17.7106 55.1015 14.8985C52.2894 12.0865 48.4768 10.5046 44.5 10.5Z" fill="#FF3366"/>
</svg>
