<svg width="64" height="64" viewBox="0 0 64 64" fill="none" xmlns="http://www.w3.org/2000/svg">
<path d="M28.15 39.6077C30.9355 38.0289 33.1201 35.5725 34.363 32.6218C35.6059 29.6711 35.8372 26.3919 35.0208 23.296C34.2044 20.2 32.3862 17.4613 29.8499 15.5071C27.3136 13.5529 24.2018 12.4932 21 12.4932C17.7982 12.4932 14.6865 13.5529 12.1502 15.5071C9.61387 17.4613 7.79571 20.2 6.97931 23.296C6.16292 26.3919 6.3942 29.6711 7.63709 32.6218C8.87997 35.5725 11.0646 38.0289 13.85 39.6077C8.68747 41.2536 4.2539 44.636 1.30254 49.1802C1.08506 49.5134 1.00884 49.9193 1.09066 50.3087C1.17247 50.6981 1.40561 51.039 1.73879 51.2565C2.07197 51.474 2.47789 51.5502 2.86726 51.4684C3.25664 51.3866 3.59756 51.1534 3.81504 50.8202C5.67656 47.9581 8.22346 45.6062 11.2245 43.9781C14.2256 42.35 17.5858 41.4973 21 41.4973C24.4143 41.4973 27.7745 42.35 30.7755 43.9781C33.7766 45.6062 36.3235 47.9581 38.185 50.8202C38.4167 51.1171 38.7515 51.316 39.123 51.3774C39.4945 51.4388 39.8756 51.3583 40.1904 51.1517C40.5053 50.9452 40.7309 50.6278 40.8225 50.2625C40.9142 49.8973 40.8651 49.511 40.685 49.1802C37.7368 44.6383 33.308 41.2561 28.15 39.6077ZM9.50004 27.0002C9.50004 24.7258 10.1745 22.5023 11.4381 20.6112C12.7018 18.72 14.4978 17.246 16.5992 16.3756C18.7005 15.5052 21.0128 15.2775 23.2436 15.7212C25.4744 16.1649 27.5235 17.2602 29.1318 18.8685C30.7401 20.4768 31.8353 22.5259 32.2791 24.7567C32.7228 26.9875 32.4951 29.2997 31.6247 31.4011C30.7542 33.5025 29.2803 35.2985 27.3891 36.5621C25.4979 37.8258 23.2745 38.5002 21 38.5002C17.9513 38.4963 15.0285 37.2834 12.8727 35.1276C10.7169 32.9718 9.50401 30.049 9.50004 27.0002ZM62.25 51.2502C61.9171 51.4675 61.5116 51.5437 61.1225 51.4621C60.7335 51.3806 60.3927 51.1479 60.175 50.8152C58.3168 47.9528 55.7718 45.6009 52.772 43.9739C49.7721 42.3469 46.4127 41.4965 43 41.5002C42.6022 41.5002 42.2207 41.3422 41.9394 41.0609C41.6581 40.7796 41.5 40.3981 41.5 40.0002C41.5 39.6024 41.6581 39.2209 41.9394 38.9396C42.2207 38.6583 42.6022 38.5002 43 38.5002C44.6935 38.4985 46.3657 38.1228 47.8971 37.4C49.4286 36.6772 50.7815 35.625 51.8592 34.3187C52.9369 33.0125 53.7128 31.4843 54.1315 29.8434C54.5501 28.2025 54.6012 26.4894 54.2811 24.8265C53.961 23.1635 53.2776 21.5918 52.2797 20.2236C51.2818 18.8554 49.994 17.7245 48.5084 16.9116C47.0228 16.0988 45.376 15.6241 43.6856 15.5214C41.9953 15.4187 40.3031 15.6907 38.73 16.3177C38.5468 16.3928 38.3506 16.4308 38.1526 16.4296C37.9547 16.4284 37.7589 16.388 37.5766 16.3108C37.3943 16.2336 37.2291 16.121 37.0905 15.9797C36.9519 15.8383 36.8427 15.6709 36.7691 15.4871C36.6955 15.3033 36.6591 15.1068 36.6618 14.9088C36.6645 14.7109 36.7064 14.5154 36.7851 14.3338C36.8637 14.1521 36.9775 13.9878 37.12 13.8503C37.2624 13.7128 37.4307 13.6049 37.615 13.5327C41.0271 12.1724 44.8283 12.1578 48.2507 13.4917C51.6731 14.8257 54.4618 17.4089 56.0532 20.7194C57.6447 24.03 57.9204 27.8212 56.8247 31.3272C55.729 34.8332 53.3435 37.7926 50.15 39.6077C55.3126 41.2536 59.7462 44.636 62.6975 49.1802C62.912 49.5143 62.9854 49.9197 62.9015 50.3077C62.8176 50.6957 62.5834 51.0346 62.25 51.2502Z" fill="#FF3366"/>
</svg>
